<svg width="313" height="129" viewBox="0 0 313 129" fill="none" xmlns="http://www.w3.org/2000/svg">
<g clip-path="url(#clip0_293_1010)">
<path d="M267.696 62.229C222.13 64.2406 227.749 -21.1381 148.847 19.9683C131.714 28.8944 93.5838 10.1482 78.3502 49.2039C74.7271 58.4907 47.5229 59.1377 29.9403 66.5855C2.36059 78.2682 10.149 128.122 36.2043 128.318C62.2597 128.514 253.676 127.927 253.676 127.927C253.676 127.927 283.231 127.331 295.859 112.127C318.739 84.584 308.427 60.4304 267.696 62.229Z" fill="#EAEAEA"/>
<path d="M261.945 124.577C261.945 124.577 262.665 128.621 261.517 128.807C261.071 128.879 247.811 128.787 247.811 128.787C247.811 128.787 247.811 127.694 249.984 127.451C252.156 127.208 255.971 126.318 256.618 124.335C257.264 122.352 261.945 124.577 261.945 124.577Z" fill="#131F2D"/>
<path d="M248.822 103.656C248.822 107.105 254.602 125.315 254.602 125.315C254.602 125.315 260.432 126.037 262.952 124.312C262.952 124.312 262.404 107.42 261.528 103.827C261.35 103.1 261.632 102.026 262.18 100.721C264.34 95.5806 270.623 86.8584 269.182 81.6889C267.375 75.2071 254.604 82.1895 254.604 82.1895C254.604 82.1895 254.045 83.9292 253.277 86.4323C251.571 91.9822 248.826 101.281 248.826 103.657L248.822 103.656Z" fill="#364154"/>
<path d="M253.273 86.431L262.178 100.721C264.338 95.5806 270.621 86.8584 269.18 81.6889C267.373 75.2071 254.602 82.1895 254.602 82.1895C254.602 82.1895 254.043 83.9292 253.275 86.4323L253.273 86.431Z" fill="#131F2D"/>
<path d="M233.325 75.5024C233.325 75.5024 230.449 72.3758 229.277 72.3405C228.103 72.3039 225.184 71.5445 224.808 71.9549C224.433 72.3654 226.607 73.3548 227.548 73.8646C228.488 74.3744 229.101 75.6945 230.687 75.7416C232.274 75.7886 233.325 75.5037 233.325 75.5037V75.5024Z" fill="#FF7955"/>
<path d="M253.472 52.984C253.472 52.984 247.339 65.3464 244.52 67.6926C241.702 70.0388 231.813 73.5052 231.728 73.815C231.523 74.5509 232.34 75.7011 233.266 75.7037C236.553 75.7155 243.215 73.9941 246.302 71.955C249.567 69.797 254.735 57.4686 254.735 57.4686L253.472 52.984Z" fill="#364154"/>
<path d="M224.994 67.6612C224.994 67.6612 221.487 67.6233 219.576 66.7985C217.664 65.9738 213.797 66.0077 213.012 66.4221C212.227 66.8364 212.356 67.0848 213.315 67.4599C214.275 67.835 217.498 69.597 220.142 69.4271C222.787 69.2585 225.925 69.8257 225.925 69.8257L224.992 67.6612H224.994Z" fill="#FF7955"/>
<path d="M294.352 120.955C294.352 120.955 296.76 122.493 296.289 123.586C295.819 124.679 293.648 125.407 293.355 126.743C293.061 128.079 291.887 128.807 290.831 128.807H285.794C285.794 128.807 285.016 127.867 286.895 127.583C288.774 127.3 289.481 125.731 289.366 124.274C289.248 122.816 289.542 120.874 289.542 120.874L293.535 120.227L294.356 120.955H294.352Z" fill="#131F2D"/>
<path d="M254.371 78.3101C254.371 78.3101 269.519 98.4496 277.973 108.892C286.427 119.334 289.068 122.248 289.068 122.248C289.068 122.248 293.912 120.912 294.352 120.001C294.352 120.001 290.006 102.725 282.98 96.6236C279.782 93.8461 279.928 86.0114 278.978 81.6314C278.352 78.7466 275.507 73.6516 275.507 73.6516L254.371 78.3088V78.3101Z" fill="#364154"/>
<path d="M248.382 48.5491C246.808 49.8523 246.236 51.179 246.236 51.179C251.491 50.9293 258.019 45.9925 258.019 45.9925C258.019 45.9925 254.206 45.2657 251.518 42.3614C251.381 42.215 251.248 42.0634 251.121 41.9065C250.712 41.4072 250.338 40.8504 250.02 40.2308L248.461 42.1143L245.87 45.2474C245.87 45.2474 246.412 46.1755 247.663 47.6982C247.881 47.9635 248.122 48.2485 248.384 48.5478L248.382 48.5491Z" fill="#FF7955"/>
<path d="M244.634 56.4007C244.795 58.1614 245.566 60.8291 246.611 63.7884C247.017 64.9347 247.464 66.1241 247.932 67.3227C248.695 69.2677 249.487 71.223 250.304 73.0634L250.335 73.1288C250.393 73.3157 250.486 73.5144 250.57 73.6961C251.279 75.3221 251.959 76.8265 252.553 78.1048C253.688 80.5491 253.696 81.9098 254.6 82.1856C256.42 82.7398 263.585 82.145 267.879 80.8615C271.506 79.7962 277.035 76.586 277.006 74.9691C276.974 73.0961 273.326 67.4547 270.909 60.8683C267.927 52.8232 261.31 46.3989 255.793 45.0735C255.381 44.982 254.942 45.5781 253.341 46.6368C251.865 47.6145 250.003 48.2236 248.241 48.3543L247.191 49.5621C245.769 51.2913 244.366 53.5251 244.63 56.3981L244.634 56.4007Z" fill="#657285"/>
<path d="M246.611 63.7897C247.017 64.936 247.464 66.1254 247.933 67.324C248.695 69.269 249.487 71.2244 250.305 73.0647L250.335 73.1301C250.394 73.317 250.487 73.5157 250.57 73.6974C251.279 75.3234 251.96 76.8278 252.553 78.1062C264.027 68.0573 257.52 56.0243 257.52 56.0243L246.611 63.7884V63.7897Z" fill="#364154"/>
<path d="M261.098 53.3775C261.098 53.3775 250.261 70.7198 243.525 71.1865C240.201 71.4165 226.192 70.7172 222.188 70.1578C222.188 70.1578 221.439 69.4376 222.543 67.2887C222.543 67.2887 237.867 66.3895 240.605 64.8458C244.681 62.548 243.401 52.8468 248.158 50.8639C252.915 48.8811 259.594 48.9033 261.096 53.3775H261.098Z" fill="#657285"/>
<path d="M245.868 45.2474C245.868 45.2474 246.41 46.1754 247.661 47.6981C250.88 46.0643 251.432 43.4397 251.517 42.3613C251.542 42.0568 251.529 41.8738 251.529 41.8738C251.529 41.8738 251.379 41.8855 251.119 41.9052C250.575 41.947 249.553 42.028 248.459 42.113L245.868 45.2461V45.2474Z" fill="#EF6343"/>
<path d="M244.395 45.5585C244.395 45.5585 252.623 44.352 251.453 40.8308C250.284 37.3095 250.559 34.7829 245.256 35.4051C239.953 36.0272 239.382 37.5304 239.358 38.7721C239.333 40.0125 242.224 45.7833 244.395 45.5598V45.5585Z" fill="#FF7955"/>
<path d="M251.533 41.0739C251.533 41.0739 248.839 36.6624 241.395 37.8532C236.295 38.6688 237.634 35.1018 237.934 34.5123C237.934 34.5123 241.894 33.9986 245.991 33.549C254.589 32.6026 251.994 40.185 251.533 41.0739Z" fill="#131F2D"/>
<path d="M234.428 124.711V127.569C234.428 127.796 234.328 128.008 234.155 128.183C233.973 128.369 233.712 128.514 233.406 128.595C233.313 128.621 233.215 128.639 233.114 128.651C233.023 128.663 232.929 128.668 232.832 128.668H166.832C165.981 128.668 165.279 128.203 165.237 127.624C165.237 127.605 165.237 127.586 165.237 127.567V124.71C165.237 124.692 165.237 124.672 165.237 124.654C165.281 124.075 165.982 123.61 166.832 123.61H232.832C232.929 123.61 233.021 123.616 233.114 123.627C233.215 123.638 233.313 123.658 233.406 123.683C233.713 123.764 233.973 123.91 234.155 124.095C234.328 124.271 234.428 124.481 234.428 124.709V124.711Z" fill="#00A3FE"/>
<path d="M202.02 128.669H166.661C165.903 128.669 165.275 128.204 165.237 127.625C165.237 127.607 165.237 127.587 165.237 127.569V124.712C165.237 124.693 165.237 124.674 165.237 124.655C165.275 124.076 165.903 123.611 166.661 123.611H197.678C198.173 125.1 199.328 127.16 202.02 128.669Z" fill="#016EB9"/>
<path d="M226.399 123.611H225.648V128.669H226.399V123.611Z" fill="#016EB9"/>
<path d="M223.859 123.611H223.108V128.669H223.859V123.611Z" fill="#016EB9"/>
<path d="M220.814 123.611H220.063V128.669H220.814V123.611Z" fill="#016EB9"/>
<path d="M216.148 123.611H215.397V128.669H216.148V123.611Z" fill="#016EB9"/>
<path d="M211.211 123.611H210.46V128.669H211.211V123.611Z" fill="#016EB9"/>
<path d="M203.644 123.611H202.894V128.669H203.644V123.611Z" fill="#016EB9"/>
<path d="M196.561 123.611H195.811V128.669H196.561V123.611Z" fill="#016EB9"/>
<path d="M190.235 123.611H189.484V128.669H190.235V123.611Z" fill="#016EB9"/>
<path d="M228.816 123.611H228.065V128.669H228.816V123.611Z" fill="#016EB9"/>
<path d="M230.412 123.611H229.662V128.669H230.412V123.611Z" fill="#016EB9"/>
<path d="M231.954 123.611H231.203V128.669H231.954V123.611Z" fill="#016EB9"/>
<path d="M233.114 123.629V128.652C233.023 128.664 232.928 128.669 232.832 128.669H232.363V123.611H232.832C232.928 123.611 233.021 123.617 233.114 123.628V123.629Z" fill="#016EB9"/>
<path d="M234.155 124.097V128.183C233.973 128.369 233.711 128.514 233.406 128.595V123.684C233.713 123.765 233.973 123.912 234.155 124.096V124.097Z" fill="#016EB9"/>
<path d="M217.164 69.6741V72.5314C217.164 72.7589 217.064 72.9706 216.891 73.1457C216.709 73.3314 216.447 73.4764 216.142 73.5575C216.049 73.5836 215.951 73.6019 215.85 73.6137C215.759 73.6255 215.664 73.6307 215.568 73.6307H149.568C148.716 73.6307 148.015 73.1654 147.973 72.5863C147.973 72.568 147.973 72.5484 147.973 72.5301V69.6728C147.973 69.6545 147.973 69.6349 147.973 69.6166C148.017 69.0376 148.716 68.5723 149.568 68.5723H215.568C215.664 68.5723 215.757 68.5788 215.85 68.5893C215.951 68.601 216.049 68.6206 216.142 68.6455C216.449 68.7265 216.709 68.8729 216.891 69.0572C217.064 69.2337 217.164 69.4441 217.164 69.6715V69.6741Z" fill="#00A3FE"/>
<path d="M184.754 73.6321H149.395C148.637 73.6321 148.009 73.1668 147.971 72.5878C147.971 72.5695 147.971 72.5499 147.971 72.5316V69.6743C147.971 69.656 147.971 69.6364 147.971 69.6181C148.009 69.0391 148.637 68.5737 149.395 68.5737H180.412C180.907 70.0625 182.061 72.1225 184.754 73.6321Z" fill="#016EB9"/>
<path d="M209.133 68.5736H208.382V73.632H209.133V68.5736Z" fill="#016EB9"/>
<path d="M206.594 68.5736H205.843V73.632H206.594V68.5736Z" fill="#016EB9"/>
<path d="M203.55 68.5736H202.799V73.632H203.55V68.5736Z" fill="#016EB9"/>
<path d="M198.882 68.5736H198.131V73.632H198.882V68.5736Z" fill="#016EB9"/>
<path d="M193.947 68.5736H193.196V73.632H193.947V68.5736Z" fill="#016EB9"/>
<path d="M186.38 68.5736H185.629V73.632H186.38V68.5736Z" fill="#016EB9"/>
<path d="M179.295 68.5736H178.544V73.632H179.295V68.5736Z" fill="#016EB9"/>
<path d="M172.969 68.5736H172.218V73.632H172.969V68.5736Z" fill="#016EB9"/>
<path d="M211.55 68.5736H210.799V73.632H211.55V68.5736Z" fill="#016EB9"/>
<path d="M213.146 68.5736H212.396V73.632H213.146V68.5736Z" fill="#016EB9"/>
<path d="M214.688 68.5736H213.937V73.632H214.688V68.5736Z" fill="#016EB9"/>
<path d="M215.848 68.5906V73.6137C215.757 73.6255 215.662 73.6307 215.565 73.6307H215.097V68.5723H215.565C215.662 68.5723 215.755 68.5788 215.848 68.5893V68.5906Z" fill="#016EB9"/>
<path d="M216.889 69.0598V73.1457C216.707 73.3313 216.445 73.4764 216.14 73.5574V68.6467C216.447 68.7278 216.707 68.8742 216.889 69.0585V69.0598Z" fill="#016EB9"/>
<path d="M227.372 119.653V122.51C227.372 122.738 227.271 122.95 227.099 123.125C226.917 123.31 226.655 123.455 226.35 123.536C226.257 123.563 226.158 123.581 226.058 123.593C225.967 123.604 225.872 123.611 225.775 123.611H159.775C158.924 123.611 158.222 123.146 158.181 122.567C158.181 122.548 158.181 122.529 158.181 122.51V119.653C158.181 119.635 158.181 119.615 158.181 119.597C158.224 119.018 158.926 118.552 159.775 118.552H225.775C225.817 118.552 225.861 118.552 225.902 118.556C225.919 118.556 225.938 118.558 225.955 118.56C225.974 118.56 225.995 118.563 226.014 118.566C226.027 118.566 226.043 118.568 226.056 118.571C226.156 118.583 226.255 118.602 226.348 118.627C226.361 118.631 226.374 118.635 226.389 118.639C226.403 118.643 226.416 118.647 226.429 118.651C226.456 118.66 226.482 118.669 226.509 118.677C226.524 118.682 226.539 118.688 226.554 118.695C226.568 118.7 226.581 118.705 226.594 118.712C226.621 118.722 226.645 118.733 226.67 118.745C226.699 118.758 226.725 118.772 226.752 118.786C226.772 118.797 226.793 118.809 226.814 118.822C226.814 118.822 226.816 118.822 226.818 118.824C226.831 118.832 226.844 118.841 226.858 118.849C226.898 118.875 226.937 118.903 226.973 118.932C226.985 118.941 226.996 118.949 227.006 118.958C227.017 118.967 227.027 118.975 227.036 118.984C227.057 119.002 227.076 119.02 227.095 119.04C227.267 119.216 227.368 119.427 227.368 119.654L227.372 119.653Z" fill="#00A3FE"/>
<path d="M194.963 123.611H159.604C158.844 123.611 158.219 123.146 158.181 122.567C158.181 122.548 158.181 122.529 158.181 122.51V119.653C158.181 119.635 158.181 119.615 158.181 119.597C158.219 119.018 158.844 118.552 159.604 118.552H190.62C190.633 118.594 190.648 118.635 190.663 118.677C191.181 120.154 192.345 122.143 194.963 123.611Z" fill="#016EB9"/>
<path d="M219.343 118.552H218.592V123.611H219.343V118.552Z" fill="#016EB9"/>
<path d="M216.802 118.552H216.051V123.611H216.802V118.552Z" fill="#016EB9"/>
<path d="M213.757 118.552H213.006V123.611H213.757V118.552Z" fill="#016EB9"/>
<path d="M209.089 118.552H208.338V123.611H209.089V118.552Z" fill="#016EB9"/>
<path d="M204.154 118.552H203.403V123.611H204.154V118.552Z" fill="#016EB9"/>
<path d="M196.588 118.552H195.837V123.611H196.588V118.552Z" fill="#016EB9"/>
<path d="M189.505 118.552H188.754V123.611H189.505V118.552Z" fill="#016EB9"/>
<path d="M183.178 118.552H182.427V123.611H183.178V118.552Z" fill="#016EB9"/>
<path d="M221.76 118.552H221.009V123.611H221.76V118.552Z" fill="#016EB9"/>
<path d="M223.356 118.552H222.605V123.611H223.356V118.552Z" fill="#016EB9"/>
<path d="M224.897 118.552H224.146V123.611H224.897V118.552Z" fill="#016EB9"/>
<path d="M226.057 118.569V123.593C225.966 123.604 225.872 123.611 225.775 123.611H225.307V118.552H225.775C225.872 118.552 225.965 118.559 226.057 118.571V118.569Z" fill="#016EB9"/>
<path d="M227.098 119.039V123.125C226.916 123.31 226.655 123.455 226.35 123.536V118.627C226.657 118.708 226.916 118.854 227.098 119.039Z" fill="#016EB9"/>
<path d="M230.782 114.72V117.578C230.782 117.805 230.682 118.017 230.509 118.192C230.327 118.378 230.066 118.523 229.76 118.604C229.667 118.63 229.569 118.648 229.468 118.66C229.377 118.672 229.283 118.678 229.186 118.678H163.186C162.92 118.678 162.67 118.634 162.45 118.554C161.984 118.385 161.65 118.061 161.597 117.683C161.595 117.666 161.593 117.651 161.591 117.634C161.591 117.616 161.591 117.596 161.591 117.578V114.72C161.591 114.702 161.591 114.682 161.591 114.664C161.635 114.085 162.336 113.62 163.186 113.62H229.186C229.283 113.62 229.375 113.626 229.468 113.638C229.569 113.65 229.667 113.669 229.76 113.694C230.067 113.775 230.327 113.922 230.509 114.106C230.682 114.282 230.782 114.493 230.782 114.72Z" fill="#00A3FE"/>
<path d="M198.372 118.677H163.013C162.776 118.677 162.552 118.632 162.357 118.553C161.94 118.384 161.642 118.06 161.595 117.682C161.593 117.665 161.591 117.649 161.589 117.632C161.589 117.614 161.589 117.594 161.589 117.576V114.719C161.589 114.701 161.589 114.681 161.589 114.663C161.627 114.084 162.255 113.618 163.013 113.618H194.03C194.512 115.067 195.617 117.055 198.156 118.553C198.228 118.594 198.3 118.636 198.374 118.677H198.372Z" fill="#016EB9"/>
<path d="M222.751 113.618H222V118.677H222.751V113.618Z" fill="#016EB9"/>
<path d="M220.213 113.618H219.462V118.677H220.213V113.618Z" fill="#016EB9"/>
<path d="M217.168 113.618H216.417V118.677H217.168V113.618Z" fill="#016EB9"/>
<path d="M212.5 113.618H211.749V118.677H212.5V113.618Z" fill="#016EB9"/>
<path d="M207.565 113.618H206.814V118.677H207.565V113.618Z" fill="#016EB9"/>
<path d="M199.998 113.618H199.248V118.677H199.998V113.618Z" fill="#016EB9"/>
<path d="M192.913 113.618H192.163V118.677H192.913V113.618Z" fill="#016EB9"/>
<path d="M186.589 113.618H185.838V118.677H186.589V113.618Z" fill="#016EB9"/>
<path d="M225.168 113.618H224.417V118.677H225.168V113.618Z" fill="#016EB9"/>
<path d="M226.765 113.618H226.014V118.677H226.765V113.618Z" fill="#016EB9"/>
<path d="M228.308 113.618H227.557V118.677H228.308V113.618Z" fill="#016EB9"/>
<path d="M229.467 113.637V118.66C229.376 118.672 229.281 118.678 229.184 118.678H228.716V113.62H229.184C229.281 113.62 229.374 113.626 229.467 113.638V113.637Z" fill="#016EB9"/>
<path d="M230.509 114.104V118.19C230.327 118.376 230.065 118.521 229.76 118.602V113.693C230.067 113.774 230.327 113.92 230.509 114.104Z" fill="#016EB9"/>
<path d="M232.363 109.66V112.518C232.363 112.745 232.263 112.957 232.09 113.132C231.908 113.318 231.647 113.463 231.341 113.544C231.248 113.57 231.15 113.588 231.049 113.6C230.958 113.612 230.864 113.617 230.767 113.617H164.767C163.916 113.617 163.214 113.152 163.172 112.573C163.172 112.554 163.172 112.535 163.172 112.516V109.659C163.172 109.641 163.172 109.621 163.172 109.603C163.212 109.067 163.815 108.629 164.579 108.566C164.642 108.561 164.704 108.559 164.769 108.559H230.769C230.866 108.559 230.958 108.565 231.051 108.577C231.152 108.589 231.25 108.608 231.343 108.633C231.65 108.714 231.91 108.861 232.092 109.045C232.265 109.221 232.365 109.432 232.365 109.659L232.363 109.66Z" fill="#00A3FE"/>
<path d="M199.953 113.618H164.594C163.836 113.618 163.208 113.153 163.17 112.574C163.17 112.556 163.17 112.536 163.17 112.518V109.661C163.17 109.642 163.17 109.623 163.17 109.604C163.206 109.069 163.745 108.631 164.425 108.568C164.48 108.563 164.537 108.56 164.594 108.56H195.611C195.611 108.56 195.611 108.565 195.613 108.568C196.11 110.055 197.264 112.111 199.953 113.618Z" fill="#016EB9"/>
<path d="M224.332 108.56H223.582V113.618H224.332V108.56Z" fill="#016EB9"/>
<path d="M221.794 108.56H221.043V113.618H221.794V108.56Z" fill="#016EB9"/>
<path d="M218.749 108.56H217.998V113.618H218.749V108.56Z" fill="#016EB9"/>
<path d="M214.081 108.56H213.33V113.618H214.081V108.56Z" fill="#016EB9"/>
<path d="M209.146 108.56H208.395V113.618H209.146V108.56Z" fill="#016EB9"/>
<path d="M201.579 108.56H200.829V113.618H201.579V108.56Z" fill="#016EB9"/>
<path d="M194.494 108.56H193.744V113.618H194.494V108.56Z" fill="#016EB9"/>
<path d="M188.17 108.56H187.419V113.618H188.17V108.56Z" fill="#016EB9"/>
<path d="M226.749 108.56H225.999V113.618H226.749V108.56Z" fill="#016EB9"/>
<path d="M228.346 108.56H227.595V113.618H228.346V108.56Z" fill="#016EB9"/>
<path d="M229.889 108.56H229.138V113.618H229.889V108.56Z" fill="#016EB9"/>
<path d="M231.048 108.578V113.601C230.957 113.613 230.862 113.62 230.765 113.62H230.297V108.561H230.765C230.862 108.561 230.955 108.568 231.048 108.58V108.578Z" fill="#016EB9"/>
<path d="M232.09 109.046V113.132C231.908 113.318 231.647 113.463 231.341 113.544V108.634C231.648 108.715 231.908 108.862 232.09 109.046Z" fill="#016EB9"/>
<path d="M227.51 104.61V107.467C227.51 107.695 227.409 107.906 227.237 108.082C227.055 108.267 226.793 108.412 226.488 108.493C226.395 108.519 226.296 108.538 226.196 108.549C226.166 108.553 226.133 108.557 226.103 108.559L226.052 108.563C226.035 108.563 226.018 108.564 226.001 108.565C225.972 108.565 225.944 108.566 225.915 108.566H159.915C159.064 108.566 158.363 108.101 158.321 107.522C158.321 107.504 158.321 107.484 158.321 107.466V104.609C158.321 104.59 158.321 104.571 158.321 104.552C158.321 104.537 158.323 104.521 158.325 104.507C158.389 104.04 158.878 103.656 159.521 103.542C159.536 103.539 159.553 103.537 159.57 103.534C159.682 103.517 159.798 103.508 159.915 103.508H225.915C225.965 103.508 226.012 103.509 226.058 103.512C226.078 103.513 226.099 103.515 226.122 103.517C226.147 103.52 226.171 103.522 226.196 103.526C226.296 103.538 226.395 103.558 226.488 103.583C226.795 103.664 227.055 103.81 227.237 103.994C227.409 104.171 227.51 104.381 227.51 104.609V104.61Z" fill="#00A3FE"/>
<path d="M195.101 108.568H159.743C158.984 108.568 158.357 108.102 158.319 107.523C158.319 107.505 158.319 107.486 158.319 107.467V104.61C158.319 104.592 158.319 104.572 158.319 104.554C158.319 104.538 158.321 104.522 158.323 104.508C158.38 104.031 158.836 103.641 159.428 103.537C159.449 103.533 159.468 103.529 159.489 103.528C159.57 103.516 159.655 103.509 159.741 103.509H190.758C190.762 103.521 190.765 103.533 190.771 103.545C191.271 105.028 192.426 107.062 195.086 108.56C195.09 108.563 195.096 108.565 195.099 108.568H195.101Z" fill="#016EB9"/>
<path d="M219.48 103.509H218.729V108.568H219.48V103.509Z" fill="#016EB9"/>
<path d="M216.942 103.509H216.191V108.568H216.942V103.509Z" fill="#016EB9"/>
<path d="M213.895 103.509H213.145V108.568H213.895V103.509Z" fill="#016EB9"/>
<path d="M209.229 103.509H208.479V108.568H209.229V103.509Z" fill="#016EB9"/>
<path d="M204.292 103.509H203.542V108.568H204.292V103.509Z" fill="#016EB9"/>
<path d="M196.728 103.509H195.977V108.568H196.728V103.509Z" fill="#016EB9"/>
<path d="M189.643 103.509H188.892V108.568H189.643V103.509Z" fill="#016EB9"/>
<path d="M183.316 103.509H182.565V108.568H183.316V103.509Z" fill="#016EB9"/>
<path d="M221.898 103.509H221.147V108.568H221.898V103.509Z" fill="#016EB9"/>
<path d="M223.494 103.509H222.743V108.568H223.494V103.509Z" fill="#016EB9"/>
<path d="M225.035 103.509H224.285V108.568H225.035V103.509Z" fill="#016EB9"/>
<path d="M226.196 103.528V108.551C226.105 108.563 226.01 108.569 225.913 108.569H225.445V103.511H225.913C226.01 103.511 226.103 103.517 226.196 103.529V103.528Z" fill="#016EB9"/>
<path d="M227.237 103.996V108.082C227.055 108.267 226.793 108.412 226.488 108.493V103.584C226.795 103.665 227.055 103.811 227.237 103.996Z" fill="#016EB9"/>
<path d="M227.372 99.5881V102.445C227.372 102.673 227.271 102.885 227.099 103.06C226.917 103.245 226.655 103.39 226.35 103.471C226.276 103.491 226.2 103.507 226.122 103.519C226.101 103.522 226.081 103.525 226.06 103.528C225.969 103.539 225.874 103.546 225.777 103.546H159.777C159.707 103.546 159.637 103.543 159.57 103.537C159.544 103.536 159.517 103.532 159.493 103.529C158.774 103.44 158.221 103.015 158.183 102.503C158.183 102.485 158.183 102.465 158.183 102.447V99.5895C158.183 99.5712 158.183 99.5515 158.183 99.5333C158.226 98.9542 158.928 98.4889 159.777 98.4889H225.777C225.819 98.4889 225.862 98.4889 225.904 98.4928C225.921 98.4928 225.94 98.4954 225.957 98.4967C225.976 98.4967 225.997 98.4993 226.016 98.502C226.029 98.502 226.044 98.5046 226.058 98.5072C226.158 98.519 226.257 98.5386 226.35 98.5634C226.363 98.5673 226.376 98.5712 226.391 98.5752C226.405 98.5791 226.418 98.583 226.431 98.5869C226.458 98.5961 226.484 98.6052 226.511 98.6131C226.539 98.6235 226.57 98.6353 226.598 98.6471C226.625 98.6575 226.649 98.668 226.674 98.6797C226.702 98.6928 226.729 98.7072 226.755 98.7216C226.776 98.732 226.797 98.7438 226.818 98.7568C226.818 98.7568 226.82 98.7568 226.822 98.7595C226.835 98.7673 226.848 98.7765 226.862 98.7843C226.901 98.8104 226.941 98.8379 226.977 98.8666C226.989 98.8745 227 98.8836 227.01 98.8928C227.021 98.9019 227.03 98.9111 227.04 98.9189C227.061 98.9372 227.08 98.9555 227.099 98.9751C227.271 99.1516 227.372 99.362 227.372 99.5895V99.5881Z" fill="#00A3FE"/>
<path d="M194.963 103.546H159.604C159.576 103.546 159.548 103.546 159.521 103.545C159.491 103.545 159.46 103.541 159.43 103.538C158.749 103.474 158.217 103.036 158.181 102.503C158.181 102.485 158.181 102.465 158.181 102.447V99.5895C158.181 99.5712 158.181 99.5515 158.181 99.5333C158.219 98.9542 158.844 98.4889 159.604 98.4889H190.62C190.633 98.5307 190.648 98.5712 190.663 98.6131C191.177 100.078 192.326 102.045 194.899 103.511C194.919 103.522 194.94 103.534 194.963 103.546Z" fill="#016EB9"/>
<path d="M219.343 98.4874H218.592V103.546H219.343V98.4874Z" fill="#016EB9"/>
<path d="M216.802 98.4874H216.051V103.546H216.802V98.4874Z" fill="#016EB9"/>
<path d="M213.757 98.4874H213.006V103.546H213.757V98.4874Z" fill="#016EB9"/>
<path d="M209.089 98.4874H208.338V103.546H209.089V98.4874Z" fill="#016EB9"/>
<path d="M204.154 98.4874H203.403V103.546H204.154V98.4874Z" fill="#016EB9"/>
<path d="M196.588 98.4874H195.837V103.546H196.588V98.4874Z" fill="#016EB9"/>
<path d="M189.505 98.4874H188.754V103.546H189.505V98.4874Z" fill="#016EB9"/>
<path d="M183.178 98.4874H182.427V103.546H183.178V98.4874Z" fill="#016EB9"/>
<path d="M221.76 98.4874H221.009V103.546H221.76V98.4874Z" fill="#016EB9"/>
<path d="M223.356 98.4874H222.605V103.546H223.356V98.4874Z" fill="#016EB9"/>
<path d="M224.897 98.4874H224.146V103.546H224.897V98.4874Z" fill="#016EB9"/>
<path d="M226.057 98.5044V103.528C225.966 103.539 225.872 103.546 225.775 103.546H225.307V98.4874H225.775C225.872 98.4874 225.965 98.494 226.057 98.5057V98.5044Z" fill="#016EB9"/>
<path d="M227.098 98.9736V103.06C226.916 103.245 226.655 103.39 226.35 103.471V98.5619C226.657 98.6429 226.916 98.7893 227.098 98.9736Z" fill="#016EB9"/>
<path d="M230.782 94.6538V97.5111C230.782 97.7385 230.682 97.9502 230.509 98.1254C230.327 98.311 230.066 98.4561 229.76 98.5371C229.667 98.5633 229.569 98.5816 229.468 98.5933C229.377 98.6051 229.283 98.6116 229.186 98.6116H163.186C162.92 98.6116 162.67 98.5672 162.45 98.4875C161.984 98.3188 161.65 97.9947 161.597 97.6169C161.595 97.6 161.593 97.5843 161.591 97.5673C161.591 97.549 161.591 97.5294 161.591 97.5111V94.6538C161.591 94.6355 161.591 94.6159 161.591 94.5976C161.635 94.0185 162.336 93.5532 163.186 93.5532H229.186C229.283 93.5532 229.375 93.5598 229.468 93.5702C229.569 93.582 229.667 93.6016 229.76 93.6264C230.067 93.7075 230.327 93.8539 230.509 94.0382C230.682 94.2146 230.782 94.4251 230.782 94.6525V94.6538Z" fill="#00A3FE"/>
<path d="M198.372 98.6116H163.013C162.776 98.6116 162.552 98.5672 162.357 98.4875C161.94 98.3188 161.642 97.9947 161.595 97.6169C161.593 97.6 161.591 97.5843 161.589 97.5673C161.589 97.549 161.589 97.5294 161.589 97.5111V94.6538C161.589 94.6355 161.589 94.6159 161.589 94.5976C161.627 94.0185 162.255 93.5532 163.013 93.5532H194.03C194.512 95.0015 195.617 96.9895 198.156 98.4875C198.228 98.5293 198.3 98.5711 198.374 98.6116H198.372Z" fill="#016EB9"/>
<path d="M222.751 93.5532H222V98.6116H222.751V93.5532Z" fill="#016EB9"/>
<path d="M220.213 93.5532H219.462V98.6116H220.213V93.5532Z" fill="#016EB9"/>
<path d="M217.168 93.5532H216.417V98.6116H217.168V93.5532Z" fill="#016EB9"/>
<path d="M212.5 93.5532H211.749V98.6116H212.5V93.5532Z" fill="#016EB9"/>
<path d="M207.565 93.5532H206.814V98.6116H207.565V93.5532Z" fill="#016EB9"/>
<path d="M199.998 93.5532H199.248V98.6116H199.998V93.5532Z" fill="#016EB9"/>
<path d="M192.913 93.5532H192.163V98.6116H192.913V93.5532Z" fill="#016EB9"/>
<path d="M186.589 93.5532H185.838V98.6116H186.589V93.5532Z" fill="#016EB9"/>
<path d="M225.168 93.5532H224.417V98.6116H225.168V93.5532Z" fill="#016EB9"/>
<path d="M226.765 93.5532H226.014V98.6116H226.765V93.5532Z" fill="#016EB9"/>
<path d="M228.308 93.5532H227.557V98.6116H228.308V93.5532Z" fill="#016EB9"/>
<path d="M229.467 93.5702V98.5933C229.376 98.6051 229.281 98.6116 229.184 98.6116H228.716V93.5532H229.184C229.281 93.5532 229.374 93.5598 229.467 93.5715V93.5702Z" fill="#016EB9"/>
<path d="M230.509 94.0394V98.1254C230.327 98.311 230.065 98.4561 229.76 98.5371V93.6277C230.067 93.7087 230.327 93.8551 230.509 94.0394Z" fill="#016EB9"/>
<path d="M236.176 89.5954V92.4527C236.176 92.6802 236.076 92.8919 235.903 93.0671C235.721 93.2527 235.46 93.3977 235.154 93.4788C235.061 93.5049 234.963 93.5232 234.862 93.535C234.771 93.5468 234.677 93.5533 234.58 93.5533H168.58C167.729 93.5533 167.027 93.088 166.985 92.5089C166.985 92.4906 166.985 92.471 166.985 92.4527V89.5954C166.985 89.5771 166.985 89.5575 166.985 89.5392C167.025 89.0033 167.628 88.5655 168.392 88.5027C168.455 88.4975 168.517 88.4949 168.582 88.4949H234.582C234.679 88.4949 234.771 88.5014 234.864 88.5132C234.965 88.5249 235.063 88.5445 235.156 88.5694C235.463 88.6504 235.723 88.7968 235.905 88.9811C236.078 89.1576 236.178 89.368 236.178 89.5954H236.176Z" fill="#00A3FE"/>
<path d="M203.766 93.5533H168.407C167.649 93.5533 167.021 93.088 166.983 92.5089C166.983 92.4906 166.983 92.471 166.983 92.4527V89.5954C166.983 89.5771 166.983 89.5575 166.983 89.5392C167.019 89.0033 167.558 88.5655 168.238 88.5027C168.293 88.4975 168.35 88.4949 168.407 88.4949H199.424V88.5027C199.925 89.9915 201.079 92.0462 203.766 93.5533Z" fill="#016EB9"/>
<path d="M228.145 88.4949H227.395V93.5533H228.145V88.4949Z" fill="#016EB9"/>
<path d="M225.607 88.4949H224.856V93.5533H225.607V88.4949Z" fill="#016EB9"/>
<path d="M222.562 88.4949H221.811V93.5533H222.562V88.4949Z" fill="#016EB9"/>
<path d="M217.894 88.4949H217.143V93.5533H217.894V88.4949Z" fill="#016EB9"/>
<path d="M212.959 88.4949H212.208V93.5533H212.959V88.4949Z" fill="#016EB9"/>
<path d="M205.392 88.4949H204.642V93.5533H205.392V88.4949Z" fill="#016EB9"/>
<path d="M198.307 88.4949H197.557V93.5533H198.307V88.4949Z" fill="#016EB9"/>
<path d="M191.983 88.4949H191.232V93.5533H191.983V88.4949Z" fill="#016EB9"/>
<path d="M230.562 88.4949H229.812V93.5533H230.562V88.4949Z" fill="#016EB9"/>
<path d="M232.159 88.4949H231.408V93.5533H232.159V88.4949Z" fill="#016EB9"/>
<path d="M233.702 88.4949H232.951V93.5533H233.702V88.4949Z" fill="#016EB9"/>
<path d="M234.861 88.5119V93.535C234.77 93.5468 234.675 93.5533 234.578 93.5533H234.11V88.4949H234.578C234.675 88.4949 234.768 88.5014 234.861 88.5132V88.5119Z" fill="#016EB9"/>
<path d="M235.903 88.9811V93.067C235.721 93.2526 235.46 93.3977 235.154 93.4787V88.5693C235.461 88.6504 235.721 88.7968 235.903 88.9811Z" fill="#016EB9"/>
<path d="M227.51 84.5448V87.4021C227.51 87.6295 227.409 87.8413 227.237 88.0164C227.055 88.202 226.793 88.3471 226.488 88.4282C226.395 88.4543 226.296 88.4726 226.196 88.4844C226.166 88.4883 226.133 88.4922 226.103 88.4935C226.078 88.4961 226.054 88.4974 226.029 88.4988C226.018 88.4988 226.004 88.4988 225.991 88.5001C225.965 88.5001 225.94 88.5001 225.913 88.5001H159.913C159.062 88.5001 158.361 88.0347 158.319 87.4557C158.319 87.4374 158.319 87.4178 158.319 87.3995V84.5422C158.319 84.5239 158.319 84.5043 158.319 84.486C158.362 83.907 159.064 83.4417 159.913 83.4417H225.913C225.942 83.4417 225.97 83.4417 225.999 83.443C226.065 83.4456 226.131 83.4508 226.196 83.4586C226.296 83.4704 226.395 83.49 226.488 83.5148C226.535 83.5279 226.583 83.541 226.626 83.558C226.655 83.5671 226.681 83.5776 226.708 83.588C226.71 83.588 226.713 83.5894 226.717 83.592C226.744 83.6024 226.77 83.6142 226.797 83.6273C226.803 83.6286 226.806 83.6312 226.81 83.6338C226.835 83.6442 226.859 83.6573 226.882 83.6691C226.939 83.6978 226.992 83.7305 227.041 83.7645C227.057 83.775 227.072 83.7854 227.087 83.7972C227.089 83.7985 227.093 83.8011 227.095 83.8037C227.104 83.8103 227.114 83.8168 227.121 83.8246C227.121 83.8246 227.125 83.8272 227.127 83.8285C227.142 83.8416 227.159 83.8547 227.174 83.8691C227.197 83.8887 227.218 83.9083 227.239 83.9292C227.411 84.1056 227.512 84.3161 227.512 84.5435L227.51 84.5448Z" fill="#00A3FE"/>
<path d="M195.101 88.5026H159.743C158.984 88.5026 158.357 88.0373 158.319 87.4583C158.319 87.44 158.319 87.4204 158.319 87.4021V84.5448C158.319 84.5265 158.319 84.5069 158.319 84.4886C158.357 83.9095 158.984 83.4442 159.743 83.4442H190.76C190.773 83.4821 190.786 83.5213 190.799 83.5605C191.313 85.0362 192.474 87.0243 195.086 88.4948C195.09 88.4974 195.096 88.5 195.099 88.5026H195.101Z" fill="#016EB9"/>
<path d="M219.48 83.4442H218.729V88.5026H219.48V83.4442Z" fill="#016EB9"/>
<path d="M216.942 83.4442H216.191V88.5026H216.942V83.4442Z" fill="#016EB9"/>
<path d="M213.895 83.4442H213.145V88.5026H213.895V83.4442Z" fill="#016EB9"/>
<path d="M209.229 83.4442H208.479V88.5026H209.229V83.4442Z" fill="#016EB9"/>
<path d="M204.292 83.4442H203.542V88.5026H204.292V83.4442Z" fill="#016EB9"/>
<path d="M196.728 83.4442H195.977V88.5026H196.728V83.4442Z" fill="#016EB9"/>
<path d="M189.643 83.4442H188.892V88.5026H189.643V83.4442Z" fill="#016EB9"/>
<path d="M183.316 83.4442H182.565V88.5026H183.316V83.4442Z" fill="#016EB9"/>
<path d="M221.898 83.4442H221.147V88.5026H221.898V83.4442Z" fill="#016EB9"/>
<path d="M223.494 83.4442H222.743V88.5026H223.494V83.4442Z" fill="#016EB9"/>
<path d="M225.035 83.4442H224.285V88.5026H225.035V83.4442Z" fill="#016EB9"/>
<path d="M226.196 83.4612V88.4843C226.105 88.4961 226.01 88.5026 225.913 88.5026H225.445V83.4442H225.913C226.01 83.4442 226.103 83.4507 226.196 83.4625V83.4612Z" fill="#016EB9"/>
<path d="M227.237 83.9304V88.0164C227.055 88.202 226.793 88.3471 226.488 88.4281V83.5187C226.795 83.5997 227.055 83.7461 227.237 83.9304Z" fill="#016EB9"/>
<path d="M232.363 79.6028V82.46C232.363 82.6875 232.263 82.8992 232.09 83.0744C231.908 83.26 231.647 83.4051 231.341 83.4861C231.248 83.5122 231.15 83.5305 231.049 83.5423C230.958 83.5541 230.864 83.5593 230.767 83.5593H164.767C164.511 83.5593 164.268 83.5175 164.054 83.443C163.572 83.277 163.229 82.9463 163.176 82.5607C163.176 82.5463 163.172 82.5306 163.172 82.5162C163.172 82.4979 163.172 82.4783 163.172 82.46V79.6028C163.172 79.5845 163.172 79.5649 163.172 79.5466C163.212 79.0107 163.815 78.5728 164.579 78.51C164.642 78.5048 164.704 78.5022 164.769 78.5022H230.769C230.866 78.5022 230.958 78.5087 231.051 78.5205C231.152 78.5323 231.25 78.5519 231.343 78.5767C231.65 78.6577 231.91 78.8041 232.092 78.9884C232.265 79.1649 232.365 79.3753 232.365 79.6028H232.363Z" fill="#00A3FE"/>
<path d="M199.953 83.5608H164.594C164.365 83.5608 164.149 83.5189 163.957 83.4444C163.527 83.2784 163.222 82.9478 163.174 82.5622C163.174 82.5478 163.17 82.5321 163.17 82.5177C163.17 82.4994 163.17 82.4798 163.17 82.4615V79.6042C163.17 79.5859 163.17 79.5663 163.17 79.548C163.206 79.0121 163.745 78.5742 164.425 78.5115C164.48 78.5063 164.537 78.5037 164.594 78.5037H195.611C195.611 78.5037 195.611 78.5089 195.613 78.5115C196.097 79.9624 197.206 81.9504 199.75 83.4457C199.816 83.485 199.885 83.5242 199.953 83.5621V83.5608Z" fill="#016EB9"/>
<path d="M224.332 78.5022H223.582V83.5606H224.332V78.5022Z" fill="#016EB9"/>
<path d="M221.794 78.5022H221.043V83.5606H221.794V78.5022Z" fill="#016EB9"/>
<path d="M218.749 78.5022H217.998V83.5606H218.749V78.5022Z" fill="#016EB9"/>
<path d="M214.081 78.5022H213.33V83.5606H214.081V78.5022Z" fill="#016EB9"/>
<path d="M209.146 78.5022H208.395V83.5606H209.146V78.5022Z" fill="#016EB9"/>
<path d="M201.579 78.5022H200.829V83.5606H201.579V78.5022Z" fill="#016EB9"/>
<path d="M194.494 78.5022H193.744V83.5606H194.494V78.5022Z" fill="#016EB9"/>
<path d="M188.17 78.5022H187.419V83.5606H188.17V78.5022Z" fill="#016EB9"/>
<path d="M226.749 78.5022H225.999V83.5606H226.749V78.5022Z" fill="#016EB9"/>
<path d="M228.346 78.5022H227.595V83.5606H228.346V78.5022Z" fill="#016EB9"/>
<path d="M229.889 78.5022H229.138V83.5606H229.889V78.5022Z" fill="#016EB9"/>
<path d="M231.048 78.5192V83.5423C230.957 83.5541 230.862 83.5606 230.765 83.5606H230.297V78.5022H230.765C230.862 78.5022 230.955 78.5087 231.048 78.5192Z" fill="#016EB9"/>
<path d="M232.09 78.9885V83.0744C231.908 83.26 231.647 83.4051 231.341 83.4861V78.5754C231.648 78.6565 231.908 78.8029 232.09 78.9872V78.9885Z" fill="#016EB9"/>
<path d="M227.51 74.5522V77.4095C227.51 77.6369 227.409 77.8487 227.237 78.0238C227.055 78.2094 226.793 78.3545 226.488 78.4355C226.395 78.4617 226.296 78.48 226.196 78.4917C226.166 78.4957 226.133 78.4996 226.103 78.5009L226.052 78.5048C226.035 78.5048 226.018 78.5061 226.001 78.5074C225.972 78.5074 225.944 78.5087 225.915 78.5087H159.915C159.064 78.5087 158.363 78.0434 158.321 77.4644C158.321 77.4461 158.321 77.4265 158.321 77.4082V74.5509C158.321 74.5326 158.321 74.513 158.321 74.4947C158.364 73.9156 159.066 73.4503 159.915 73.4503H225.915C226.012 73.4503 226.105 73.4569 226.198 73.4673C226.298 73.4791 226.397 73.4987 226.49 73.5235C226.797 73.6046 227.057 73.7509 227.239 73.9352C227.411 74.1117 227.512 74.3221 227.512 74.5496L227.51 74.5522Z" fill="#00A3FE"/>
<path d="M195.101 78.5101H159.743C158.984 78.5101 158.357 78.0447 158.319 77.4657C158.319 77.4474 158.319 77.4278 158.319 77.4095V74.5522C158.319 74.5339 158.319 74.5143 158.319 74.496C158.357 73.917 158.984 73.4517 159.743 73.4517H190.76C191.254 74.9378 192.405 76.9926 195.088 78.5022C195.092 78.5048 195.097 78.5075 195.101 78.5101Z" fill="#016EB9"/>
<path d="M219.48 73.4517H218.729V78.5101H219.48V73.4517Z" fill="#016EB9"/>
<path d="M216.942 73.4517H216.191V78.5101H216.942V73.4517Z" fill="#016EB9"/>
<path d="M213.895 73.4517H213.145V78.5101H213.895V73.4517Z" fill="#016EB9"/>
<path d="M209.229 73.4517H208.479V78.5101H209.229V73.4517Z" fill="#016EB9"/>
<path d="M204.292 73.4517H203.542V78.5101H204.292V73.4517Z" fill="#016EB9"/>
<path d="M196.728 73.4517H195.977V78.5101H196.728V73.4517Z" fill="#016EB9"/>
<path d="M189.643 73.4517H188.892V78.5101H189.643V73.4517Z" fill="#016EB9"/>
<path d="M183.316 73.4517H182.565V78.5101H183.316V73.4517Z" fill="#016EB9"/>
<path d="M221.898 73.4517H221.147V78.5101H221.898V73.4517Z" fill="#016EB9"/>
<path d="M223.494 73.4517H222.743V78.5101H223.494V73.4517Z" fill="#016EB9"/>
<path d="M225.035 73.4517H224.285V78.5101H225.035V73.4517Z" fill="#016EB9"/>
<path d="M226.196 73.4687V78.4918C226.105 78.5035 226.01 78.5101 225.913 78.5101H225.445V73.4517H225.913C226.01 73.4517 226.103 73.4582 226.196 73.4687Z" fill="#016EB9"/>
<path d="M227.237 73.9378V78.0238C227.055 78.2094 226.793 78.3545 226.488 78.4355V73.5261C226.795 73.6072 227.055 73.7536 227.237 73.9378Z" fill="#016EB9"/>
<path d="M142.589 75.3365L148.743 125.781C148.743 125.781 149.388 128.838 146.089 128.845C140.665 128.854 119.089 128.845 119.089 128.845C119.089 128.845 123.171 128.208 123.122 126.775C123.063 125.087 115.929 74.8594 115.929 74.8594L142.589 75.3365Z" fill="#657285"/>
<path d="M117.337 127.93C118.405 127.932 139.011 127.977 144.293 127.93C146.595 127.91 146.999 126.518 147.018 125.617C147.027 125.186 146.948 124.867 146.948 124.867L146.788 123.556L146.381 120.214L146.021 117.261L145.558 113.467L145.167 110.264L140.795 74.4202L114.135 73.9431C114.135 73.9431 117.14 94.9636 119.266 110.264C119.503 111.969 119.728 113.604 119.937 115.129C120.005 115.617 120.069 116.093 120.132 116.557C120.329 118.005 120.509 119.334 120.667 120.508C120.75 121.126 120.826 121.701 120.894 122.228C121.165 124.292 121.325 125.61 121.326 125.859C121.326 126.006 121.309 126.141 121.275 126.267C120.837 127.875 117.737 127.927 117.337 127.927V127.93Z" fill="#B8C1C9"/>
<path d="M79.3396 47.8864H207.332L192.343 89.3967L190.291 95.0812L183.309 114.416H53.6084L79.3396 47.8864Z" fill="#B8C1C9"/>
<path d="M207.334 47.8864L209.41 48.3647L186.071 115.86L183.309 114.416L207.334 47.8864Z" fill="#657285"/>
<path d="M186.071 115.86H57.1689L53.6084 114.416H183.309L186.071 115.86Z" fill="#657285"/>
<path d="M140.805 127.95H112.895V128.865H140.805V127.95Z" fill="#4A75CB"/>
<path d="M79.3395 47.8864H207.334L188.043 101.338L58.5737 101.355L79.3395 47.8864Z" fill="#B8C1C9"/>
<path d="M64.6104 99.0378H184.45L198.021 61.7636L199.062 58.9064L199.949 56.4673L202.031 50.7515H83.9182L81.6318 56.4673L80.6573 58.9064L79.514 61.7636L64.6104 99.0378Z" fill="#EAEAEA"/>
<path d="M83.9183 50.7515H202.031L199.949 56.4673H81.6318L83.9183 50.7515Z" fill="#00A3FE"/>
<path d="M195.009 52.6193C195.581 52.6193 195.93 52.9395 195.786 53.3342C195.644 53.729 195.064 54.0492 194.491 54.0492C193.918 54.0492 193.57 53.729 193.714 53.3342C193.856 52.9395 194.436 52.6193 195.009 52.6193Z" fill="#E9F3FE"/>
<path d="M191.564 52.6193C192.136 52.6193 192.485 52.9395 192.341 53.3342C192.199 53.729 191.619 54.0492 191.046 54.0492C190.474 54.0492 190.125 53.729 190.269 53.3342C190.411 52.9395 190.991 52.6193 191.564 52.6193Z" fill="#E9F3FE"/>
<path d="M186.56 53.3342C186.703 52.9395 187.283 52.6193 187.855 52.6193C188.428 52.6193 188.777 52.9395 188.633 53.3342C188.49 53.729 187.91 54.0492 187.338 54.0492C186.765 54.0492 186.416 53.729 186.56 53.3342Z" fill="#E9F3FE"/>
<path d="M79.7109 95.791H119.987L133.486 58.4646H93.2098L79.7109 95.791Z" fill="#F4F4F4"/>
<g opacity="0.5">
<path d="M96.4614 69.3723H123.142C123.472 69.3723 123.812 69.1854 123.893 68.9579L123.95 68.8024C124.032 68.575 123.829 68.3881 123.499 68.3881H96.8179C96.488 68.3881 96.1486 68.575 96.0671 68.8024L96.0102 68.9579C95.9287 69.1854 96.1315 69.3723 96.4614 69.3723Z" fill="#657285"/>
<path d="M98.835 62.8081H125.516C125.846 62.8081 126.185 62.6212 126.267 62.3937L126.324 62.2382C126.407 62.0108 126.202 61.8239 125.872 61.8239H99.1914C98.8615 61.8239 98.5221 62.0108 98.4406 62.2382L98.3837 62.3937C98.3022 62.6212 98.5051 62.8081 98.835 62.8081Z" fill="#657285"/>
<path d="M98.0103 65.0876H124.691C125.021 65.0876 125.361 64.9007 125.442 64.6733L125.499 64.5177C125.58 64.2903 125.378 64.1034 125.048 64.1034H98.3667C98.0368 64.1034 97.6974 64.2903 97.6159 64.5177L97.559 64.6733C97.4775 64.9007 97.6804 65.0876 98.0103 65.0876Z" fill="#657285"/>
<path d="M97.2368 67.23H123.918C124.248 67.23 124.587 67.043 124.669 66.8156L124.725 66.6601C124.809 66.4326 124.604 66.2457 124.274 66.2457H97.5933C97.2634 66.2457 96.924 66.4326 96.8425 66.6601L96.7856 66.8156C96.7041 67.043 96.9069 67.23 97.2368 67.23Z" fill="#657285"/>
<path d="M94.882 73.7366H121.563C121.893 73.7366 122.232 73.5496 122.314 73.3222L122.371 73.1667C122.454 72.9392 122.249 72.7523 121.919 72.7523H95.2384C94.9085 72.7523 94.5692 72.9392 94.4876 73.1667L94.4307 73.3222C94.3473 73.5496 94.5521 73.7366 94.882 73.7366Z" fill="#657285"/>
<path d="M95.6572 71.5943H122.338C122.668 71.5943 123.007 71.4074 123.089 71.18L123.146 71.0245C123.229 70.797 123.025 70.6101 122.695 70.6101H96.0137C95.6838 70.6101 95.3444 70.797 95.2629 71.0245L95.206 71.18C95.1245 71.4074 95.3273 71.5943 95.6572 71.5943Z" fill="#657285"/>
<path d="M90.0248 86.7643H96.505C96.8975 86.7643 97.2994 86.5435 97.3961 86.2716C97.4947 86.001 97.252 85.7788 96.8595 85.7788H90.3794C89.9869 85.7788 89.585 85.9997 89.4883 86.2716C89.3897 86.5421 89.6324 86.7643 90.0248 86.7643Z" fill="#657285"/>
<path d="M109.877 86.7643H116.357C116.75 86.7643 117.151 86.5435 117.248 86.2716C117.347 86.001 117.104 85.7788 116.712 85.7788H110.231C109.839 85.7788 109.437 85.9997 109.34 86.2716C109.242 86.5421 109.484 86.7643 109.877 86.7643Z" fill="#657285"/>
</g>
<path d="M95.5986 92.0632H86.1475C85.8991 92.0632 85.6849 91.9965 85.5484 91.875C85.4062 91.7482 85.3626 91.5809 85.427 91.4018L86.1077 89.5183C86.2366 89.1615 86.7637 88.87 87.2831 88.87H96.7342C96.9826 88.87 97.1968 88.9367 97.3333 89.0582C97.4755 89.185 97.5191 89.3523 97.4546 89.5314L96.774 91.4149C96.6451 91.7717 96.118 92.0632 95.5986 92.0632ZM87.2831 88.9236C86.7978 88.9236 86.303 89.1968 86.1816 89.5314L85.501 91.4149C85.4422 91.577 85.4801 91.7299 85.609 91.8423C85.7323 91.9508 85.9238 92.0096 86.1475 92.0096H95.5986C96.0839 92.0096 96.5787 91.7364 96.7001 91.4018L97.3807 89.5183C97.4395 89.3562 97.4016 89.2033 97.2726 89.0909C97.1494 88.9824 96.9579 88.9236 96.7342 88.9236H87.2831Z" fill="#476BA7"/>
<path d="M115.485 92.0632H106.034C105.785 92.0632 105.571 91.9965 105.435 91.875C105.292 91.7482 105.249 91.5809 105.313 91.4018L105.994 89.5183C106.123 89.1615 106.65 88.87 107.169 88.87H116.62C116.869 88.87 117.083 88.9367 117.22 89.0582C117.362 89.185 117.405 89.3523 117.341 89.5314L116.66 91.4149C116.531 91.7717 116.004 92.0632 115.485 92.0632ZM107.169 88.9236C106.684 88.9236 106.189 89.1968 106.068 89.5314L105.387 91.4149C105.328 91.577 105.366 91.7299 105.495 91.8423C105.619 91.9508 105.81 92.0096 106.034 92.0096H115.485C115.97 92.0096 116.465 91.7364 116.586 91.4018L117.267 89.5183C117.326 89.3562 117.288 89.2033 117.159 89.0909C117.036 88.9824 116.844 88.9236 116.62 88.9236H107.169Z" fill="#476BA7"/>
<path d="M117.53 88.6204C116.095 89.0295 114.669 89.4765 113.257 89.9614C113.314 89.8529 113.363 89.7431 113.409 89.6334C113.445 89.5458 113.272 89.487 113.166 89.5837C113.119 89.6268 113.069 89.6673 113.016 89.7065C113.052 89.6281 112.918 89.5837 112.802 89.6412C112.794 89.6451 112.787 89.649 112.779 89.653C112.836 89.5471 112.597 89.5314 112.508 89.6334L112.375 89.7863C112.264 89.8791 112.108 89.9484 111.947 89.9837C111.913 89.934 111.892 89.8791 111.884 89.819C111.879 89.7745 111.831 89.7497 111.774 89.7497C111.773 89.6961 111.702 89.6647 111.598 89.6961C111.473 89.7353 111.361 89.7928 111.272 89.8608C111.202 89.7693 110.974 89.8346 110.853 89.9222C110.857 89.917 110.861 89.9118 110.863 89.9078C110.919 89.8229 110.813 89.7262 110.669 89.8124C110.413 89.964 110.227 90.1562 110.14 90.3457C110.057 90.4098 109.966 90.4725 109.869 90.53C109.822 90.5575 109.604 90.6973 109.552 90.6856C109.505 90.6738 109.53 90.5875 109.552 90.5261C109.56 90.5183 109.568 90.5104 109.575 90.5039C109.757 90.3287 110.635 89.5066 110.017 89.5144C109.951 89.5144 109.884 89.5445 109.844 89.5863C109.619 89.8268 109.444 90.0791 109.338 90.3313C109.317 90.3797 109.289 90.4424 109.266 90.5078C109.247 90.5248 109.23 90.5418 109.211 90.5575C108.965 90.7797 108.625 91.0999 108.227 91.2097C108.191 90.862 108.445 90.4503 108.637 90.0856C108.72 89.9288 108.805 89.7706 108.896 89.6137C108.923 89.6098 108.951 89.6007 108.982 89.5837C109.412 89.334 109.588 88.9641 109.393 88.7145C109.336 88.6426 109.166 88.7079 109.116 88.7837C108.821 89.2412 108.551 89.7026 108.311 90.1627C108.098 90.5718 107.856 91.0032 107.945 91.3809C107.954 91.4201 108.021 91.4358 108.085 91.4267C108.538 91.3587 108.934 91.0803 109.253 90.8019C109.276 90.8385 109.315 90.8646 109.378 90.8777C109.588 90.9208 109.879 90.7588 110.085 90.6228C110.089 90.6699 110.102 90.7169 110.123 90.7601C110.146 90.8084 110.218 90.8189 110.301 90.7954C110.497 90.7418 110.681 90.6542 110.836 90.5496C111.041 90.5065 111.221 90.3888 111.371 90.2542C111.465 90.1967 111.553 90.1366 111.634 90.0725C111.651 90.1078 111.676 90.1392 111.708 90.1653C111.786 90.2268 111.979 90.1706 112.104 90.1314C112.224 90.0934 112.334 90.0425 112.43 89.9837C112.506 89.9797 112.582 89.9654 112.656 89.9418C112.669 89.9562 112.686 89.9706 112.709 89.9797C112.787 90.015 112.878 90.002 112.969 89.9627C112.948 90.002 112.927 90.0425 112.906 90.0817C112.7 90.1536 112.495 90.2255 112.29 90.2987C112.154 90.347 112.123 90.4895 112.275 90.4816C112.465 90.4712 112.652 90.462 112.84 90.4516C112.925 90.4477 112.994 90.4098 113.03 90.3536C113.064 90.3013 113.094 90.249 113.126 90.1967C114.601 89.6869 116.093 89.2177 117.595 88.789C117.786 88.7341 117.722 88.5642 117.532 88.6191L117.53 88.6204ZM110.954 90.1183C110.94 90.1457 110.925 90.1732 110.906 90.1993C110.893 90.2176 110.88 90.2359 110.864 90.2542C110.885 90.2085 110.916 90.1627 110.954 90.1183ZM110.538 90.3627C110.523 90.4176 110.504 90.4712 110.533 90.5104C110.487 90.5339 110.44 90.5562 110.39 90.5745C110.381 90.5169 110.387 90.4542 110.407 90.3928C110.474 90.3392 110.535 90.2843 110.591 90.2281C110.569 90.2738 110.55 90.3196 110.538 90.3614V90.3627Z" fill="#131F2D"/>
<path d="M91.1187 88.0139C90.6106 88.6648 90.3262 89.3328 89.9129 89.9915C89.7119 90.3131 89.4749 90.6333 89.1678 90.9365C88.9536 91.1483 88.4853 91.6071 88.0909 91.5077C87.9923 91.4829 87.9639 91.4241 87.9961 91.3457C88.0037 91.3287 88.0113 91.3104 88.0208 91.2921C88.0701 91.313 88.1478 91.3038 88.2255 91.2751C88.3526 91.228 88.4625 91.1339 88.5175 91.0516C88.5763 90.9627 88.5668 90.8712 88.4644 90.832C88.3734 90.7967 88.2369 90.8281 88.1421 90.8947C88.0359 90.9679 87.9885 91.062 87.9355 91.147C87.871 91.2502 87.7857 91.364 87.7952 91.4633C87.8103 91.6136 88.0454 91.6672 88.2748 91.6319C88.5535 91.5901 88.8019 91.4215 88.9896 91.2685C89.2114 91.0882 89.4067 90.8947 89.5754 90.6987C89.9205 90.2987 90.1631 89.8843 90.3925 89.4726C90.658 88.9968 90.9063 88.5171 91.2722 88.0479C91.331 87.9708 91.1775 87.9381 91.1168 88.0152L91.1187 88.0139ZM88.3677 90.9705C88.3848 91.0163 88.3203 91.0764 88.2672 91.1195C88.2483 91.1352 88.2312 91.1483 88.2066 91.1601C88.1933 91.1666 88.1781 91.1731 88.163 91.1771C88.1573 91.1771 88.1535 91.1784 88.1497 91.1797C88.1383 91.1653 88.1194 91.1587 88.0966 91.1587C88.1194 91.1248 88.1421 91.0908 88.1649 91.0581C88.199 91.0097 88.3317 90.8738 88.3677 90.9705Z" fill="#131F2D"/>
<path d="M94.5218 90.049C94.4175 90.0869 94.3075 90.13 94.1995 90.1418C94.1729 90.1444 94.1445 90.1457 94.1161 90.1431C94.1919 90.0908 94.2639 90.0281 94.2753 89.9706C94.2943 89.8765 94.1426 89.8542 94.0156 89.9026C93.9018 89.9457 93.8279 90.0333 93.8203 90.1065C93.8184 90.1313 93.8241 90.1536 93.8355 90.1732C93.7255 90.2281 93.5359 90.3039 93.4184 90.2882C93.5662 90.2176 93.699 90.1287 93.8013 90.0268C93.8203 90.0072 93.8222 89.981 93.807 89.968C93.7426 89.9091 93.6117 89.9052 93.4847 89.951C93.3482 89.9993 93.261 90.0934 93.2079 90.181C93.1909 90.2098 93.1776 90.2385 93.1719 90.2647C93.0354 90.3078 92.8951 90.33 92.7624 90.3287C92.806 90.3 92.8477 90.2712 92.8894 90.2438C92.952 90.2006 92.9141 90.1575 92.8572 90.1523C92.7283 90.1405 92.6316 90.2163 92.5937 90.2947C92.3927 90.4176 92.1747 90.5274 91.9453 90.6189C91.8884 90.6411 91.8106 90.6882 91.7708 90.6581C91.8656 90.6097 91.9528 90.5561 92.0344 90.4973C92.1898 90.3836 92.3453 90.181 92.1595 90.1104C92.1273 90.0974 92.0628 90.1 92.0287 90.1327C91.9471 90.2072 91.8656 90.2817 91.786 90.3562C91.7158 90.4215 91.6419 90.4856 91.5983 90.5561C91.585 90.5784 91.5756 90.6032 91.5718 90.6267C91.4883 90.662 91.4011 90.6934 91.3139 90.7182C91.3063 90.7208 91.2987 90.7221 91.2912 90.7248C91.3386 90.6986 91.386 90.6725 91.4334 90.645C91.568 90.5692 91.6893 90.4816 91.6969 90.3771C91.7045 90.279 91.6116 90.2111 91.5263 90.1523C91.5035 90.1366 91.4485 90.1444 91.4144 90.1614C91.1547 90.2973 90.9423 90.4803 90.838 90.6725C90.8039 90.7339 90.7925 90.7967 90.8305 90.8398C90.5992 90.9613 90.366 91.0803 90.129 91.1953C90.1043 91.2071 90.0437 91.2463 90.019 91.2398C89.9963 91.2345 90.0057 91.1979 90.0057 91.1809C90.0057 91.1365 90.0095 91.0907 90.0171 91.0437C90.0342 90.943 90.0702 90.8398 90.1252 90.7378C90.1726 90.6476 90.2333 90.5601 90.3053 90.4738C90.3337 90.4816 90.3698 90.4803 90.4039 90.4607C90.5821 90.3614 90.6712 90.2294 90.6522 90.1078C90.6466 90.0647 90.5461 90.0712 90.4987 90.1078C90.0588 90.4529 89.7953 90.8803 89.8199 91.2515C89.8256 91.3339 89.8787 91.4031 90.038 91.3574C90.11 91.3365 90.1783 91.2986 90.2446 91.2659C90.3318 91.2241 90.4172 91.1809 90.5025 91.1378C90.6636 91.0568 90.8248 90.9744 90.984 90.8908C91.0731 90.8921 91.1774 90.8699 91.2684 90.8463C91.3803 90.8189 91.4902 90.7823 91.5964 90.7378C91.6267 90.7757 91.6836 90.8006 91.7689 90.794C91.8561 90.7875 91.9756 90.7274 92.0571 90.6934C92.1538 90.6529 92.2467 90.611 92.3396 90.5666C92.4287 90.5222 92.5159 90.4764 92.5993 90.4267C92.6183 90.445 92.6524 90.4503 92.7093 90.4516C92.787 90.4529 92.8705 90.4464 92.952 90.4333C93.0411 90.4189 93.1283 90.398 93.2136 90.3692C93.225 90.3771 93.2402 90.3836 93.2572 90.3901C93.3539 90.4228 93.4885 90.4071 93.6118 90.3745C93.7274 90.3444 93.8412 90.3 93.9454 90.2451C93.9758 90.2542 94.008 90.2607 94.0421 90.2634C94.209 90.2764 94.391 90.215 94.5578 90.1536C94.6735 90.1117 94.6355 90.0059 94.518 90.049H94.5218ZM91.0637 90.6006C91.1509 90.483 91.2779 90.3758 91.4315 90.2856C91.4978 90.3353 91.5566 90.4045 91.4675 90.4843C91.4182 90.5287 91.3405 90.5653 91.2779 90.6006C91.2059 90.6411 91.1319 90.6803 91.058 90.7195C91.039 90.73 91.0201 90.7404 90.9992 90.7496C90.9746 90.7156 91.0352 90.6372 91.0637 90.6006ZM92.0571 90.279C92.0363 90.3418 91.9282 90.4254 91.8675 90.466C91.8561 90.4738 91.8448 90.4816 91.8315 90.4895C91.8979 90.4176 91.9775 90.3483 92.0571 90.279ZM93.6004 90.0372C93.5359 90.0921 93.4582 90.1418 93.3748 90.1836C93.4203 90.1144 93.5283 90.0346 93.6004 90.0372ZM94.0251 90.0333C94.0364 90.0216 94.0857 89.9823 94.0781 90.0085C94.0743 90.0229 94.0364 90.049 94.0061 90.0699C94.008 90.0582 94.0156 90.0451 94.0251 90.0333Z" fill="#131F2D"/>
<path d="M135.883 95.791H176.157L189.656 58.4646H149.382L135.883 95.791Z" fill="#F4F4F4"/>
<g opacity="0.5">
<path d="M152.633 69.3723H179.314C179.644 69.3723 179.984 69.1854 180.065 68.9579L180.122 68.8024C180.203 68.575 180.001 68.3881 179.671 68.3881H152.99C152.66 68.3881 152.32 68.575 152.239 68.8024L152.182 68.9579C152.101 69.1854 152.303 69.3723 152.633 69.3723Z" fill="#657285"/>
<path d="M155.007 62.8081H181.688C182.018 62.8081 182.357 62.6212 182.439 62.3937L182.496 62.2382C182.579 62.0108 182.374 61.8239 182.044 61.8239H155.363C155.033 61.8239 154.694 62.0108 154.612 62.2382L154.556 62.3937C154.474 62.6212 154.677 62.8081 155.007 62.8081Z" fill="#657285"/>
<path d="M154.182 65.0876H180.863C181.193 65.0876 181.532 64.9007 181.614 64.6733L181.671 64.5177C181.752 64.2903 181.549 64.1034 181.22 64.1034H154.539C154.209 64.1034 153.869 64.2903 153.788 64.5177L153.731 64.6733C153.649 64.9007 153.852 65.0876 154.182 65.0876Z" fill="#657285"/>
<path d="M153.407 67.23H180.088C180.418 67.23 180.757 67.043 180.839 66.8156L180.895 66.6601C180.979 66.4326 180.774 66.2457 180.444 66.2457H153.763C153.433 66.2457 153.094 66.4326 153.012 66.6601L152.956 66.8156C152.874 67.043 153.077 67.23 153.407 67.23Z" fill="#657285"/>
<path d="M151.054 73.7366H177.735C178.065 73.7366 178.404 73.5496 178.486 73.3222L178.543 73.1667C178.626 72.9392 178.421 72.7523 178.091 72.7523H151.41C151.08 72.7523 150.741 72.9392 150.659 73.1667L150.603 73.3222C150.519 73.5496 150.724 73.7366 151.054 73.7366Z" fill="#657285"/>
<path d="M151.829 71.5943H178.51C178.84 71.5943 179.179 71.4074 179.261 71.18L179.318 71.0245C179.401 70.797 179.196 70.6101 178.867 70.6101H152.186C151.856 70.6101 151.516 70.797 151.435 71.0245L151.378 71.18C151.296 71.4074 151.499 71.5943 151.829 71.5943Z" fill="#657285"/>
<path d="M146.195 86.7643H152.675C153.067 86.7643 153.469 86.5435 153.566 86.2716C153.665 86.001 153.422 85.7788 153.029 85.7788H146.549C146.157 85.7788 145.755 85.9997 145.658 86.2716C145.56 86.5421 145.802 86.7643 146.195 86.7643Z" fill="#657285"/>
<path d="M166.047 86.7643H172.527C172.919 86.7643 173.321 86.5435 173.418 86.2716C173.517 86.001 173.274 85.7788 172.882 85.7788H166.401C166.009 85.7788 165.607 85.9997 165.51 86.2716C165.412 86.5421 165.654 86.7643 166.047 86.7643Z" fill="#657285"/>
</g>
<path d="M151.77 92.0632H142.319C142.071 92.0632 141.857 91.9965 141.72 91.875C141.578 91.7482 141.534 91.5809 141.599 91.4018L142.28 89.5183C142.408 89.1615 142.936 88.87 143.455 88.87H152.906C153.154 88.87 153.369 88.9367 153.505 89.0582C153.647 89.185 153.691 89.3523 153.627 89.5314L152.946 91.4149C152.817 91.7717 152.29 92.0632 151.77 92.0632ZM143.455 88.9236C142.97 88.9236 142.475 89.1968 142.353 89.5314L141.673 91.4149C141.614 91.577 141.652 91.7299 141.781 91.8423C141.904 91.9508 142.096 92.0096 142.319 92.0096H151.77C152.256 92.0096 152.751 91.7364 152.872 91.4018L153.553 89.5183C153.611 89.3562 153.573 89.2033 153.445 89.0909C153.321 88.9824 153.13 88.9236 152.906 88.9236H143.455Z" fill="#476BA7"/>
<path d="M171.657 92.0632H162.206C161.957 92.0632 161.743 91.9965 161.606 91.875C161.464 91.7482 161.421 91.5809 161.485 91.4018L162.166 89.5183C162.295 89.1615 162.822 88.87 163.341 88.87H172.792C173.041 88.87 173.255 88.9367 173.391 89.0582C173.534 89.185 173.577 89.3523 173.513 89.5314L172.832 91.4149C172.703 91.7717 172.176 92.0632 171.657 92.0632ZM163.341 88.9236C162.856 88.9236 162.361 89.1968 162.24 89.5314L161.559 91.4149C161.5 91.577 161.538 91.7299 161.667 91.8423C161.79 91.9508 161.982 92.0096 162.206 92.0096H171.657C172.142 92.0096 172.637 91.7364 172.758 91.4018L173.439 89.5183C173.498 89.3562 173.46 89.2033 173.331 89.0909C173.208 88.9824 173.016 88.9236 172.792 88.9236H163.341Z" fill="#476BA7"/>
<path d="M173.702 88.6204C172.267 89.0295 170.841 89.4765 169.429 89.9614C169.486 89.8529 169.535 89.7431 169.581 89.6334C169.617 89.5458 169.444 89.487 169.338 89.5837C169.291 89.6268 169.241 89.6673 169.188 89.7065C169.224 89.6281 169.09 89.5837 168.974 89.6412C168.966 89.6451 168.959 89.649 168.951 89.653C169.008 89.5471 168.769 89.5314 168.68 89.6334L168.547 89.7863C168.435 89.8791 168.28 89.9484 168.119 89.9837C168.085 89.934 168.064 89.8791 168.056 89.819C168.051 89.7745 168.003 89.7497 167.946 89.7497C167.944 89.6961 167.874 89.6647 167.77 89.6961C167.645 89.7353 167.533 89.7928 167.444 89.8608C167.374 89.7693 167.146 89.8346 167.025 89.9222C167.029 89.917 167.032 89.9118 167.034 89.9078C167.091 89.8229 166.985 89.7262 166.841 89.8124C166.585 89.964 166.399 90.1562 166.312 90.3457C166.229 90.4098 166.138 90.4725 166.041 90.53C165.994 90.5575 165.776 90.6973 165.724 90.6856C165.677 90.6738 165.702 90.5875 165.724 90.5261C165.732 90.5183 165.739 90.5104 165.747 90.5039C165.929 90.3287 166.807 89.5066 166.189 89.5144C166.122 89.5144 166.056 89.5445 166.016 89.5863C165.791 89.8268 165.616 90.0791 165.51 90.3313C165.489 90.3797 165.461 90.4424 165.438 90.5078C165.419 90.5248 165.402 90.5418 165.383 90.5575C165.137 90.7797 164.797 91.0999 164.399 91.2097C164.363 90.862 164.617 90.4503 164.809 90.0856C164.892 89.9288 164.977 89.7706 165.068 89.6137C165.095 89.6098 165.123 89.6007 165.154 89.5837C165.584 89.334 165.76 88.9641 165.565 88.7145C165.508 88.6426 165.338 88.7079 165.288 88.7837C164.993 89.2412 164.723 89.7026 164.483 90.1627C164.27 90.5718 164.027 91.0032 164.117 91.3809C164.126 91.4201 164.192 91.4358 164.257 91.4267C164.71 91.3587 165.106 91.0803 165.425 90.8019C165.448 90.8385 165.487 90.8646 165.55 90.8777C165.76 90.9208 166.05 90.7588 166.257 90.6228C166.261 90.6699 166.274 90.7169 166.295 90.7601C166.318 90.8084 166.39 90.8189 166.473 90.7954C166.668 90.7418 166.852 90.6542 167.008 90.5496C167.213 90.5065 167.393 90.3888 167.542 90.2542C167.637 90.1967 167.724 90.1366 167.806 90.0725C167.823 90.1078 167.848 90.1392 167.88 90.1653C167.958 90.2268 168.151 90.1706 168.276 90.1314C168.396 90.0934 168.506 90.0425 168.602 89.9837C168.678 89.9797 168.754 89.9654 168.828 89.9418C168.841 89.9562 168.858 89.9706 168.881 89.9797C168.959 90.015 169.05 90.002 169.141 89.9627C169.12 90.002 169.099 90.0425 169.078 90.0817C168.872 90.1536 168.667 90.2255 168.462 90.2987C168.325 90.347 168.295 90.4895 168.447 90.4816C168.635 90.4712 168.824 90.462 169.012 90.4516C169.097 90.4477 169.165 90.4098 169.201 90.3536C169.236 90.3013 169.266 90.249 169.298 90.1967C170.773 89.6869 172.265 89.2177 173.767 88.789C173.958 88.7341 173.894 88.5642 173.704 88.6191L173.702 88.6204ZM167.125 90.1183C167.112 90.1457 167.097 90.1732 167.078 90.1993C167.065 90.2176 167.051 90.2359 167.036 90.2542C167.057 90.2085 167.087 90.1627 167.125 90.1183ZM166.71 90.3627C166.695 90.4176 166.676 90.4712 166.704 90.5104C166.659 90.5339 166.612 90.5562 166.562 90.5745C166.553 90.5169 166.559 90.4542 166.579 90.3928C166.646 90.3392 166.706 90.2843 166.763 90.2281C166.741 90.2738 166.722 90.3196 166.71 90.3614V90.3627Z" fill="#131F2D"/>
<path d="M147.289 88.0139C146.781 88.6648 146.496 89.3328 146.083 89.9915C145.882 90.3131 145.645 90.6333 145.338 90.9365C145.123 91.1483 144.655 91.6071 144.261 91.5077C144.162 91.4829 144.134 91.4241 144.166 91.3457C144.174 91.3287 144.181 91.3104 144.191 91.2921C144.24 91.313 144.318 91.3038 144.395 91.2751C144.522 91.228 144.632 91.1339 144.687 91.0516C144.746 90.9627 144.737 90.8712 144.634 90.832C144.543 90.7967 144.407 90.8281 144.312 90.8947C144.206 90.9679 144.158 91.062 144.105 91.147C144.041 91.2502 143.956 91.364 143.965 91.4633C143.98 91.6136 144.215 91.6672 144.445 91.6319C144.723 91.5901 144.972 91.4215 145.16 91.2685C145.381 91.0882 145.577 90.8947 145.745 90.6987C146.09 90.2987 146.333 89.8843 146.562 89.4726C146.828 88.9968 147.076 88.5171 147.442 88.0479C147.501 87.9708 147.347 87.9381 147.287 88.0152L147.289 88.0139ZM144.538 90.9705C144.555 91.0163 144.49 91.0764 144.437 91.1195C144.418 91.1352 144.401 91.1483 144.377 91.1601C144.363 91.1666 144.348 91.1731 144.333 91.1771C144.327 91.1771 144.323 91.1784 144.32 91.1797C144.308 91.1653 144.289 91.1587 144.267 91.1587C144.289 91.1248 144.312 91.0908 144.335 91.0581C144.369 91.0097 144.502 90.8738 144.538 90.9705Z" fill="#131F2D"/>
<path d="M150.692 90.049C150.587 90.0869 150.477 90.13 150.369 90.1418C150.343 90.1444 150.314 90.1457 150.286 90.1431C150.362 90.0908 150.434 90.0281 150.445 89.9706C150.464 89.8765 150.313 89.8542 150.185 89.9026C150.072 89.9457 149.998 90.0333 149.99 90.1065C149.988 90.1313 149.994 90.1536 150.005 90.1732C149.895 90.2281 149.706 90.3039 149.588 90.2882C149.736 90.2176 149.869 90.1287 149.971 90.0268C149.99 90.0072 149.992 89.981 149.977 89.968C149.912 89.9091 149.782 89.9052 149.655 89.951C149.518 89.9993 149.431 90.0934 149.378 90.181C149.361 90.2098 149.348 90.2385 149.342 90.2647C149.205 90.3078 149.065 90.33 148.932 90.3287C148.976 90.3 149.018 90.2712 149.059 90.2438C149.122 90.2006 149.084 90.1575 149.027 90.1523C148.898 90.1405 148.801 90.2163 148.764 90.2947C148.563 90.4176 148.345 90.5274 148.115 90.6189C148.058 90.6411 147.981 90.6882 147.941 90.6581C148.036 90.6097 148.123 90.5561 148.204 90.4973C148.36 90.3836 148.515 90.181 148.329 90.1104C148.297 90.0974 148.233 90.1 148.199 90.1327C148.117 90.2072 148.036 90.2817 147.956 90.3562C147.886 90.4215 147.812 90.4856 147.768 90.5561C147.755 90.5784 147.745 90.6032 147.742 90.6267C147.658 90.662 147.571 90.6934 147.484 90.7182C147.476 90.7208 147.469 90.7221 147.461 90.7248C147.508 90.6986 147.556 90.6725 147.603 90.645C147.738 90.5692 147.859 90.4816 147.867 90.3771C147.872 90.279 147.781 90.2111 147.696 90.1523C147.673 90.1366 147.618 90.1444 147.584 90.1614C147.325 90.2973 147.112 90.4803 147.008 90.6725C146.974 90.7339 146.962 90.7967 147 90.8398C146.769 90.9613 146.536 91.0803 146.299 91.1953C146.274 91.2071 146.214 91.2463 146.189 91.2398C146.166 91.2345 146.176 91.1979 146.176 91.1809C146.176 91.1365 146.179 91.0907 146.187 91.0437C146.204 90.943 146.24 90.8398 146.295 90.7378C146.343 90.6476 146.403 90.5601 146.475 90.4738C146.504 90.4816 146.54 90.4803 146.574 90.4607C146.752 90.3614 146.841 90.2294 146.822 90.1078C146.816 90.0647 146.716 90.0712 146.669 90.1078C146.229 90.4529 145.965 90.8803 145.99 91.2515C145.996 91.3339 146.049 91.4031 146.208 91.3574C146.28 91.3365 146.348 91.2986 146.415 91.2659C146.502 91.2241 146.587 91.1809 146.672 91.1378C146.834 91.0568 146.995 90.9744 147.154 90.8908C147.243 90.8921 147.347 90.8699 147.438 90.8463C147.55 90.8189 147.66 90.7823 147.766 90.7378C147.797 90.7757 147.854 90.8006 147.939 90.794C148.026 90.7875 148.146 90.7274 148.227 90.6934C148.324 90.6529 148.417 90.611 148.51 90.5666C148.599 90.5222 148.686 90.4764 148.769 90.4267C148.788 90.445 148.822 90.4503 148.879 90.4516C148.957 90.4529 149.04 90.4464 149.122 90.4333C149.211 90.4189 149.298 90.398 149.384 90.3692C149.395 90.3771 149.41 90.3836 149.427 90.3901C149.524 90.4228 149.658 90.4071 149.782 90.3745C149.897 90.3444 150.011 90.3 150.115 90.2451C150.146 90.2542 150.178 90.2607 150.212 90.2634C150.379 90.2764 150.561 90.215 150.728 90.1536C150.843 90.1117 150.805 90.0059 150.688 90.049H150.692ZM147.234 90.6006C147.321 90.483 147.448 90.3758 147.601 90.2856C147.668 90.3353 147.727 90.4045 147.637 90.4843C147.588 90.5287 147.51 90.5653 147.448 90.6006C147.376 90.6411 147.302 90.6803 147.228 90.7195C147.209 90.73 147.19 90.7404 147.171 90.7496C147.146 90.7156 147.207 90.6372 147.235 90.6006H147.234ZM148.227 90.279C148.206 90.3418 148.098 90.4254 148.037 90.466C148.026 90.4738 148.015 90.4816 148.001 90.4895C148.068 90.4176 148.147 90.3483 148.227 90.279ZM149.77 90.0372C149.706 90.0921 149.628 90.1418 149.545 90.1836C149.59 90.1144 149.698 90.0346 149.77 90.0372ZM150.195 90.0333C150.206 90.0216 150.256 89.9823 150.248 90.0085C150.244 90.0229 150.206 90.049 150.176 90.0699C150.178 90.0582 150.185 90.0451 150.195 90.0333Z" fill="#131F2D"/>
<path d="M98.5243 69.6454C98.3385 69.9499 98.4277 70.2218 98.7102 70.4702C98.7102 70.4702 98.712 70.4728 98.7139 70.4728C99.2372 70.9316 100.418 71.308 101.745 71.6505C101.916 71.6949 102.068 71.7354 102.201 71.7746C102.237 71.7851 102.271 71.7955 102.305 71.806C102.331 71.8138 102.358 71.823 102.384 71.8308C103.66 72.2295 103.361 72.4569 105.721 73.3183C108.413 74.2999 109.807 74.0124 110.137 73.7915C110.415 73.6045 109.376 72.9954 108.218 72.3079C108.161 72.2752 108.106 72.2413 108.049 72.2073C107.896 72.1158 107.74 72.023 107.587 71.9302C106.216 71.0976 106.21 70.563 105.683 68.9801C105.255 67.6939 105.162 61.3702 105.162 61.3702L101.103 61.7872C101.103 61.7872 102.127 66.6064 101.188 67.5985C100.686 68.1279 99.9254 68.3056 99.4021 68.7317C99.3642 68.7618 99.3282 68.7919 99.2941 68.8219C99.004 69.0768 98.7082 69.3382 98.5224 69.6428L98.5243 69.6454Z" fill="#FF7955"/>
<path d="M98.5243 69.6454C98.3385 69.95 98.4277 70.2218 98.7102 70.4702C98.7102 70.4702 98.712 70.4728 98.7139 70.4728C99.2979 70.9172 100.456 71.295 101.747 71.6439C101.916 71.6897 102.066 71.7328 102.202 71.7747C102.238 71.7851 102.273 71.7956 102.307 71.806C102.333 71.8139 102.36 71.823 102.386 71.8309C103.662 72.2295 103.363 72.457 105.723 73.3183C108.415 74.2999 109.809 74.0124 110.139 73.7915C110.417 73.6046 109.378 72.9955 108.22 72.3079C107.782 72.2988 105.727 72.2034 103.778 71.3054C102.062 70.5185 100.604 69.3369 99.4059 68.7344C99.368 68.7644 99.332 68.7945 99.2979 68.8246C99.0078 69.0794 98.712 69.3409 98.5262 69.6454H98.5243Z" fill="#131F2D"/>
<path d="M130.591 67.975C130.859 68.8951 132.762 68.7422 134.889 68.3841C137.017 68.0259 136.51 68.452 139.538 68.2207C142.566 67.9893 143.482 67.2116 143.574 66.9005C143.658 66.6247 142.162 66.528 140.556 66.4012C140.355 66.3855 140.152 66.3686 139.949 66.3516C138.139 66.1947 136.812 65.3895 135.166 64.7269C133.608 64.0995 131.281 61.5454 131.281 61.5454L127.129 61.7715C127.129 61.7715 129.308 64.0524 130.151 65.0445C130.646 65.6274 130.622 66.3999 130.559 66.9946C130.527 67.3188 130.497 67.6495 130.591 67.9736V67.975Z" fill="#FF7955"/>
<path d="M134.89 68.3841C137.017 68.0259 136.511 68.4521 139.538 68.2207C142.566 67.9893 143.482 67.2116 143.575 66.9005C143.658 66.6248 142.162 66.528 140.556 66.4012L140.541 66.4222C140.541 66.4222 138.725 67.3097 136.205 67.3515C134.152 67.3855 131.976 66.9803 130.557 66.996C130.525 67.3201 130.495 67.6508 130.59 67.975C130.857 68.8952 132.76 68.7422 134.888 68.3841H134.89Z" fill="#131F2D"/>
<path d="M114.681 49.6732L105.734 66.2744C105.734 66.2744 104.36 66.3659 103.042 66.1045C101.829 65.864 100.439 65.2314 100.439 65.2314C100.439 65.2314 102.659 49.2915 106.728 45.9767C110.796 42.6607 114.681 49.6745 114.681 49.6745V49.6732Z" fill="#131F2D"/>
<path d="M79.292 42.9573C79.292 42.9573 105.002 36.9643 110.736 38.2387C116.469 39.5145 133.685 63.1282 133.685 63.1282C133.685 63.1282 133.297 63.4851 132.237 63.7582C131.251 64.0131 128.862 63.9974 128.862 63.9974C128.862 63.9974 113.325 54.8165 111.475 52.1383C109.625 49.4601 108.885 46.9099 107.037 47.1648C105.186 47.4197 83.1767 53.4127 78.1829 49.843C73.1891 46.2721 74.4954 41.6332 74.4954 41.6332L79.2939 42.9573H79.292Z" fill="#364154"/>
<path d="M93.9495 0.695424C92.8385 0.260165 91.5056 0.211803 90.5748 0.251015C90.8155 0.0797872 91.2857 0.0183543 91.2857 0.0183543C90.7075 -0.0404645 89.4183 0.354275 89.4183 0.354275C81.3834 -1.78019 80.1208 6.37601 80.2895 8.27128C80.4563 10.1666 80.4772 12.3468 76.4655 14.0473C68.5728 17.3908 75.2331 23.2295 75.2331 23.2295C75.2957 23.2544 78.9055 27.4763 78.9055 27.4763C78.7026 25.9444 88.9519 17.864 94.2983 15.4432C95.6008 14.1218 96.0634 11.7886 96.0975 11.6043C95.8738 13.4552 95.4131 14.493 95.0036 15.0773C99.531 12.2043 96.8957 1.85089 93.9495 0.696731V0.695424Z" fill="#131F2D"/>
<path d="M93.9813 15.5622C94.0079 15.57 91.3991 16.5046 89.4369 16.1347C87.5922 15.7883 86.3864 14.1375 86.411 14.1348C87.1921 14.0277 87.4177 13.2879 87.4007 10.1051L87.7533 10.1535L93.6951 10.9639C93.6951 10.9639 93.5605 12.2526 93.5567 13.4669C93.5529 14.4864 93.642 15.4537 93.9813 15.5622Z" fill="#FF7955"/>
<path d="M93.6972 10.9626C93.6972 10.9626 93.5626 12.2514 93.5588 13.4656C90.2353 13.4016 88.4778 11.3103 87.7573 10.1509L93.6991 10.9613L93.6972 10.9626Z" fill="#EF6343"/>
<path d="M87.1433 9.70642C87.1433 9.70642 85.401 7.80853 84.9839 6.18644C84.6862 5.02837 85.5412 0.73329 91.8015 1.35154C91.8015 1.35154 93.6197 1.47441 95.3279 2.27042C96.6873 2.90305 98.6476 4.26895 96.456 8.01636L95.8872 9.28162L87.1452 9.70511L87.1433 9.70642Z" fill="#131F2D"/>
<path d="M94.8064 12.1128C94.8064 12.1128 86.9403 12.2017 86.9346 8.82419C86.9289 5.44669 85.9108 3.18282 90.9312 2.98284C95.9534 2.78285 96.9298 4.07164 97.3298 5.19834C97.7299 6.32505 96.8502 12.0017 94.8045 12.1128H94.8064Z" fill="#FF7955"/>
<path d="M97.0986 3.32133C95.8853 2.30703 94.9676 2.52793 94.452 2.83248C92.7513 1.08098 87.3802 3.61411 87.3802 3.61411C86.8551 6.03745 84.3184 7.42557 84.3184 7.42557C84.3184 7.42557 85.7517 8.03598 89.0562 7.4504C91.6574 6.989 93.5457 4.43757 94.2301 3.37099C94.6984 3.65725 95.6843 4.31994 95.98 4.96825C96.3725 5.82831 96.5488 7.59941 97.2977 7.53928C97.2977 7.53928 98.9206 4.84538 97.0967 3.32263L97.0986 3.32133Z" fill="#131F2D"/>
<path d="M73.2613 43.0515C73.686 43.8632 74.9866 44.0723 76.7308 43.9312C80.0562 43.6632 84.9951 42.1248 88.5537 41.0608C93.9797 39.44 96.4463 40.9628 98.1716 39.9315C99.8987 38.8989 96.1979 36.605 99.4039 25.9496C100.492 22.3369 93.6006 14.5898 93.6006 14.5898C93.6006 14.5898 92.9806 16.8615 86.4132 14.1349C86.2824 14.08 81.0857 19.954 81.0857 19.954C81.0857 19.954 75.6919 27.9089 76.4673 30.1519C77.948 34.4274 72.0271 40.6935 73.2613 43.0528V43.0515Z" fill="#00A3FE"/>
<path d="M93.6006 14.5884L97.6654 26.0829C97.6654 26.0829 98.1716 26.7037 98.9641 27.5873C100.826 29.6617 104.269 33.1856 106.474 33.5437C107.562 33.7202 109.875 33.0967 112.434 32.2052C117.275 30.5191 111.411 21.8558 111.411 21.8558C111.78 20.3252 103.347 21.3748 103.347 21.3748C103.347 21.3748 109.847 28.1036 108.694 28.1598C106.184 28.2827 103.63 19.933 101.285 17.1503C99.5897 15.1374 93.6006 14.5897 93.6006 14.5897V14.5884Z" fill="#00A3FE"/>
<path d="M93.0581 10.0659C93.0581 10.0659 93.2041 10.4946 94.753 10.4293C94.753 10.4293 96.0536 10.3744 96.0138 9.90254C96.0138 9.90254 94.753 9.56662 93.0581 10.0672V10.0659Z" fill="white"/>
<path d="M73.2613 43.0515C73.686 43.8632 74.9866 44.0723 76.7308 43.9312C79.0325 43.2397 88.9727 40.585 88.8608 38.7865C88.6959 36.1226 86.9497 36.0377 88.1821 32.7504C89.1717 30.1101 79.988 25.202 78.5225 24.1354C75.7677 27.739 75.6919 27.9089 76.4673 30.1519C77.948 34.4274 72.0271 40.6935 73.2613 43.0528V43.0515Z" fill="#00A3FE"/>
<path d="M98.9639 27.586C100.826 29.6603 104.269 33.1842 106.474 33.5424C107.562 33.7188 109.875 33.0953 112.434 32.2039C110.567 32.5359 108.751 32.5268 106.987 32.4091C105.076 32.281 104.521 30.6668 101.501 28.2435C99.5402 26.6723 99.0606 27.0671 98.9639 27.586Z" fill="#B5453C"/>
<path d="M86.4132 14.1335C86.4132 14.1335 77.7394 14.7505 76.2739 16.9059C74.8083 19.0612 70.5103 27.5455 71.7806 31.4511C73.0508 35.3567 84.2822 28.5559 84.2822 28.5559L86.4132 14.1335Z" fill="#00A3FE"/>
<path d="M127.856 37.9643L123.396 20.1344C123.243 19.5174 122.384 19.0992 121.489 19.2063L74.3704 24.8072C73.4755 24.9131 72.8688 25.5052 73.0243 26.1221L77.4835 43.952C77.637 44.569 78.4959 44.9872 79.3907 44.8801L126.51 39.2792C127.404 39.1733 128.011 38.5812 127.856 37.963V37.9643Z" fill="#016EB9"/>
<path d="M123.863 22.0009L73.4883 27.9872L74.4815 31.9596L124.856 25.9733L123.863 22.0009Z" fill="#365DA4"/>
<path d="M109.371 28.9562L78.5493 32.619L79.3303 35.7426L110.152 32.0798L109.371 28.9562Z" fill="#EAEAEA"/>
<path d="M85.0098 37.6305L81.1815 38.0855C80.5026 38.1662 80.047 38.611 80.1641 39.0791L80.7334 41.3565C80.8505 41.8246 81.4958 42.1386 82.1747 42.0579L86.003 41.603C86.6819 41.5223 87.1375 41.0774 87.0204 40.6093L86.451 38.332C86.334 37.8639 85.6887 37.5499 85.0098 37.6305Z" fill="#EAEAEA"/>
<path d="M92.0914 37.1983L122.369 33.5986C122.632 33.5672 122.809 33.3947 122.763 33.213L122.684 32.8928C122.638 32.7111 122.388 32.5895 122.124 32.6209L91.8468 36.2206C91.5833 36.252 91.407 36.4245 91.4525 36.6062L91.5321 36.9264C91.5776 37.1081 91.8279 37.2297 92.0914 37.1983Z" fill="#EAEAEA"/>
<path d="M92.5444 39.0322L122.831 35.4312C123.091 35.3998 123.266 35.2299 123.222 35.0508L123.146 34.7449C123.101 34.5659 122.854 34.4456 122.594 34.4757L92.3074 38.0767C92.0477 38.1081 91.8732 38.278 91.9168 38.4571L91.9927 38.7629C92.0382 38.942 92.2846 39.0622 92.5444 39.0322Z" fill="#EAEAEA"/>
<path d="M123.664 36.8179L123.577 36.4715C123.531 36.2859 123.275 36.1618 123.006 36.1944L92.7474 39.7915C92.4782 39.8229 92.2981 39.9993 92.3455 40.185L92.4327 40.5313C92.4782 40.7169 92.7341 40.8411 93.0033 40.8084L123.262 37.2113C123.531 37.18 123.711 37.0035 123.664 36.8179Z" fill="#EAEAEA"/>
<path d="M80.0278 24.134C80.0278 24.134 82.5891 22.1982 85.1695 22.5485C87.7498 22.8988 88.3849 24.3131 88.091 24.615C87.7972 24.9182 86.9194 25.3561 85.5998 25.1535C84.2803 24.9509 80.0259 24.134 80.0259 24.134H80.0278Z" fill="#FF7955"/>
<path d="M103.346 21.3735C103.346 21.3735 105.907 19.4377 108.487 19.788C111.068 20.1383 111.703 21.5526 111.409 21.8545C111.115 22.1577 110.237 22.5956 108.918 22.393C107.598 22.1904 103.344 21.3722 103.344 21.3722L103.346 21.3735Z" fill="#FF7955"/>
<path d="M192.489 43.458C191.956 43.3678 191.416 43.5874 191.283 43.9481L188.961 50.2483H159.275L161.476 44.2762C161.608 43.9142 161.286 43.5482 160.753 43.458C160.221 43.3678 159.68 43.5874 159.548 43.9481L135.964 107.925H135.873V108.173L128.555 128.025C128.423 128.387 128.745 128.753 129.278 128.843C129.359 128.858 129.441 128.864 129.52 128.864C129.966 128.864 130.371 128.659 130.483 128.353L137.65 108.914H167.336L160.291 128.025C160.158 128.387 160.482 128.753 161.013 128.843C161.095 128.858 161.174 128.864 161.256 128.864C161.701 128.864 162.107 128.659 162.219 128.353L173.636 97.3791L174 96.3896L193.211 44.2762C193.344 43.9142 193.022 43.5482 192.489 43.458ZM167.7 107.926H138.014L142.024 97.0458V97.3791H171.586L167.7 107.925V107.926ZM171.952 96.391H142.266L146.153 85.8454H175.839L171.951 96.391H171.952ZM176.205 84.8559H146.519L150.405 74.3104H180.092L176.205 84.8559ZM180.457 73.3209H150.771L154.658 62.7754H184.344L180.457 73.3209ZM184.71 61.7859H155.024L158.91 51.2404H188.597L184.71 61.7859Z" fill="#131F2D"/>
<path d="M115.727 124.891V127.748C115.727 127.975 115.627 128.187 115.454 128.362C115.272 128.548 115.011 128.693 114.706 128.774C114.613 128.8 114.514 128.818 114.414 128.83C114.323 128.842 114.228 128.848 114.131 128.848H48.1291C47.8637 128.848 47.6134 128.804 47.3935 128.724C46.9271 128.556 46.5934 128.232 46.5404 127.854C46.5385 127.837 46.5366 127.821 46.5347 127.804C46.5347 127.786 46.5347 127.766 46.5347 127.748V124.891C46.5347 124.872 46.5347 124.853 46.5347 124.834C46.5783 124.255 47.2779 123.79 48.1291 123.79H114.129C114.226 123.79 114.319 123.797 114.412 123.807C114.512 123.819 114.611 123.838 114.704 123.863C115.011 123.944 115.271 124.091 115.453 124.275C115.625 124.451 115.726 124.662 115.726 124.889L115.727 124.891Z" fill="#00A3FE"/>
<path d="M83.317 128.848H47.9585C47.7215 128.848 47.4978 128.804 47.3025 128.724C46.8854 128.556 46.5878 128.232 46.5404 127.854C46.5385 127.837 46.5366 127.821 46.5347 127.804C46.5347 127.786 46.5347 127.766 46.5347 127.748V124.891C46.5347 124.872 46.5347 124.853 46.5347 124.834C46.5726 124.255 47.2001 123.79 47.9585 123.79H78.9754C79.457 125.238 80.5623 127.226 83.1009 128.724C83.173 128.766 83.245 128.808 83.3189 128.848H83.317Z" fill="#016EB9"/>
<path d="M107.697 123.79H106.946V128.848H107.697V123.79Z" fill="#016EB9"/>
<path d="M105.158 123.79H104.407V128.848H105.158V123.79Z" fill="#016EB9"/>
<path d="M102.113 123.79H101.362V128.848H102.113V123.79Z" fill="#016EB9"/>
<path d="M97.4451 123.79H96.6943V128.848H97.4451V123.79Z" fill="#016EB9"/>
<path d="M92.5101 123.79H91.7593V128.848H92.5101V123.79Z" fill="#016EB9"/>
<path d="M84.9437 123.79H84.1929V128.848H84.9437V123.79Z" fill="#016EB9"/>
<path d="M77.8587 123.79H77.1079V128.848H77.8587V123.79Z" fill="#016EB9"/>
<path d="M71.532 123.79H70.7812V128.848H71.532V123.79Z" fill="#016EB9"/>
<path d="M110.114 123.79H109.363V128.848H110.114V123.79Z" fill="#016EB9"/>
<path d="M111.71 123.79H110.959V128.848H111.71V123.79Z" fill="#016EB9"/>
<path d="M113.251 123.79H112.5V128.848H113.251V123.79Z" fill="#016EB9"/>
<path d="M114.411 123.808V128.831C114.32 128.843 114.226 128.85 114.129 128.85H113.661V123.791H114.129C114.226 123.791 114.319 123.798 114.411 123.81V123.808Z" fill="#016EB9"/>
<path d="M115.452 124.276V128.362C115.27 128.548 115.009 128.693 114.704 128.774V123.865C115.011 123.946 115.27 124.092 115.452 124.276Z" fill="#016EB9"/>
<path d="M121.12 119.832V122.689C121.12 122.917 121.019 123.129 120.847 123.304C120.665 123.489 120.403 123.634 120.098 123.715C120.005 123.742 119.906 123.76 119.806 123.772C119.715 123.783 119.62 123.79 119.523 123.79H53.5232C52.6719 123.79 51.9704 123.325 51.9287 122.746C51.9287 122.727 51.9287 122.708 51.9287 122.689V119.832C51.9287 119.814 51.9287 119.794 51.9287 119.776C51.9685 119.24 52.5714 118.802 53.3355 118.739C53.398 118.734 53.4606 118.732 53.5251 118.732H119.525C119.622 118.732 119.715 118.738 119.808 118.75C119.908 118.762 120.007 118.781 120.1 118.806C120.407 118.887 120.666 119.034 120.849 119.218C121.021 119.394 121.122 119.605 121.122 119.832H121.12Z" fill="#00A3FE"/>
<path d="M88.7111 123.79H53.3525C52.5942 123.79 51.9666 123.325 51.9287 122.746C51.9287 122.727 51.9287 122.708 51.9287 122.689V119.832C51.9287 119.814 51.9287 119.794 51.9287 119.776C51.9647 119.24 52.5032 118.802 53.1838 118.739C53.2388 118.734 53.2957 118.732 53.3525 118.732H84.3695C84.3695 118.732 84.3695 118.737 84.3714 118.739C84.8681 120.228 86.0227 122.283 88.7111 123.79Z" fill="#016EB9"/>
<path d="M113.091 118.732H112.34V123.79H113.091V118.732Z" fill="#016EB9"/>
<path d="M110.552 118.732H109.801V123.79H110.552V118.732Z" fill="#016EB9"/>
<path d="M107.507 118.732H106.756V123.79H107.507V118.732Z" fill="#016EB9"/>
<path d="M102.839 118.732H102.088V123.79H102.839V118.732Z" fill="#016EB9"/>
<path d="M97.9021 118.732H97.1514V123.79H97.9021V118.732Z" fill="#016EB9"/>
<path d="M90.3377 118.732H89.5869V123.79H90.3377V118.732Z" fill="#016EB9"/>
<path d="M83.2527 118.732H82.502V123.79H83.2527V118.732Z" fill="#016EB9"/>
<path d="M76.9261 118.732H76.1753V123.79H76.9261V118.732Z" fill="#016EB9"/>
<path d="M115.508 118.732H114.757V123.79H115.508V118.732Z" fill="#016EB9"/>
<path d="M117.104 118.732H116.353V123.79H117.104V118.732Z" fill="#016EB9"/>
<path d="M118.645 118.732H117.895V123.79H118.645V118.732Z" fill="#016EB9"/>
<path d="M119.805 118.749V123.772C119.714 123.783 119.62 123.79 119.523 123.79H119.055V118.732H119.523C119.62 118.732 119.713 118.738 119.805 118.75V118.749Z" fill="#016EB9"/>
<path d="M120.847 119.218V123.304C120.665 123.489 120.403 123.634 120.098 123.715V118.806C120.405 118.887 120.665 119.033 120.847 119.218Z" fill="#016EB9"/>
<path d="M112.455 114.782V117.639C112.455 117.866 112.355 118.078 112.182 118.253C112 118.439 111.738 118.584 111.433 118.665C111.34 118.691 111.242 118.709 111.141 118.721C111.111 118.725 111.079 118.729 111.048 118.73C111.024 118.733 110.999 118.734 110.974 118.736C110.963 118.736 110.95 118.736 110.936 118.737C110.91 118.737 110.885 118.737 110.859 118.737H44.8567C44.0054 118.737 43.3039 118.272 43.2622 117.693C43.2622 117.674 43.2622 117.655 43.2622 117.636V114.779C43.2622 114.761 43.2622 114.741 43.2622 114.723C43.3058 114.144 44.0073 113.678 44.8567 113.678H110.857C110.885 113.678 110.914 113.678 110.942 113.68C111.008 113.682 111.075 113.688 111.139 113.695C111.24 113.707 111.338 113.727 111.431 113.752C111.479 113.765 111.526 113.778 111.57 113.795C111.598 113.804 111.625 113.814 111.651 113.825C111.653 113.825 111.657 113.826 111.661 113.829C111.687 113.839 111.714 113.851 111.74 113.864C111.746 113.865 111.75 113.868 111.754 113.871C111.778 113.881 111.803 113.894 111.826 113.906C111.882 113.935 111.936 113.967 111.985 114.001C112 114.012 112.015 114.022 112.03 114.034C112.032 114.035 112.036 114.038 112.038 114.041C112.047 114.047 112.057 114.054 112.064 114.061C112.064 114.061 112.068 114.064 112.07 114.065C112.085 114.078 112.102 114.091 112.118 114.106C112.14 114.125 112.161 114.145 112.182 114.166C112.355 114.342 112.455 114.553 112.455 114.78V114.782Z" fill="#00A3FE"/>
<path d="M80.0446 118.739H44.686C43.9277 118.739 43.3001 118.274 43.2622 117.695C43.2622 117.677 43.2622 117.657 43.2622 117.639V114.782C43.2622 114.763 43.2622 114.744 43.2622 114.725C43.3001 114.146 43.9277 113.681 44.686 113.681H75.703C75.7162 113.719 75.7276 113.758 75.7428 113.797C76.2566 115.273 77.4169 117.261 80.0294 118.732C80.0332 118.734 80.0389 118.737 80.0427 118.739H80.0446Z" fill="#016EB9"/>
<path d="M104.424 113.681H103.673V118.739H104.424V113.681Z" fill="#016EB9"/>
<path d="M101.886 113.681H101.135V118.739H101.886V113.681Z" fill="#016EB9"/>
<path d="M98.8406 113.681H98.0898V118.739H98.8406V113.681Z" fill="#016EB9"/>
<path d="M94.1727 113.681H93.4219V118.739H94.1727V113.681Z" fill="#016EB9"/>
<path d="M89.2376 113.681H88.4868V118.739H89.2376V113.681Z" fill="#016EB9"/>
<path d="M81.6712 113.681H80.9204V118.739H81.6712V113.681Z" fill="#016EB9"/>
<path d="M74.5862 113.681H73.8354V118.739H74.5862V113.681Z" fill="#016EB9"/>
<path d="M68.2615 113.681H67.5107V118.739H68.2615V113.681Z" fill="#016EB9"/>
<path d="M106.841 113.681H106.09V118.739H106.841V113.681Z" fill="#016EB9"/>
<path d="M108.438 113.681H107.687V118.739H108.438V113.681Z" fill="#016EB9"/>
<path d="M109.981 113.681H109.23V118.739H109.981V113.681Z" fill="#016EB9"/>
<path d="M111.139 113.698V118.721C111.048 118.733 110.954 118.739 110.857 118.739H110.389V113.681H110.857C110.954 113.681 111.047 113.688 111.139 113.699V113.698Z" fill="#016EB9"/>
<path d="M112.182 114.167V118.253C112 118.439 111.738 118.584 111.433 118.665V113.755C111.74 113.837 112 113.983 112.182 114.167Z" fill="#016EB9"/>
<path d="M117.307 109.841V112.698C117.307 112.926 117.206 113.137 117.034 113.313C116.852 113.498 116.59 113.643 116.285 113.724C116.192 113.75 116.093 113.769 115.993 113.78C115.902 113.792 115.807 113.797 115.71 113.797H49.7102C49.4542 113.797 49.2116 113.756 48.9973 113.681C48.5158 113.515 48.1726 113.184 48.1195 112.799C48.1195 112.784 48.1157 112.769 48.1157 112.754C48.1157 112.736 48.1157 112.717 48.1157 112.698V109.841C48.1157 109.823 48.1157 109.803 48.1157 109.785C48.1555 109.249 48.7584 108.811 49.5225 108.748C49.585 108.743 49.6476 108.74 49.7121 108.74H115.712C115.809 108.74 115.902 108.747 115.995 108.759C116.095 108.77 116.194 108.79 116.287 108.815C116.594 108.896 116.854 109.042 117.036 109.227C117.208 109.403 117.309 109.613 117.309 109.841H117.307Z" fill="#00A3FE"/>
<path d="M84.8981 113.797H49.5395C49.3101 113.797 49.094 113.756 48.9025 113.681C48.4722 113.515 48.1669 113.184 48.1195 112.799C48.1195 112.784 48.1157 112.769 48.1157 112.754C48.1157 112.736 48.1157 112.717 48.1157 112.698V109.841C48.1157 109.823 48.1157 109.803 48.1157 109.785C48.1517 109.249 48.6902 108.811 49.3708 108.748C49.4258 108.743 49.4827 108.74 49.5395 108.74H80.5565C80.5565 108.74 80.5565 108.746 80.5584 108.748C81.0418 110.199 82.1509 112.187 84.6952 113.682C84.7616 113.722 84.8298 113.761 84.8981 113.799V113.797Z" fill="#016EB9"/>
<path d="M109.278 108.739H108.527V113.797H109.278V108.739Z" fill="#016EB9"/>
<path d="M106.737 108.739H105.986V113.797H106.737V108.739Z" fill="#016EB9"/>
<path d="M103.692 108.739H102.941V113.797H103.692V108.739Z" fill="#016EB9"/>
<path d="M99.0262 108.739H98.2754V113.797H99.0262V108.739Z" fill="#016EB9"/>
<path d="M94.0892 108.739H93.3384V113.797H94.0892V108.739Z" fill="#016EB9"/>
<path d="M86.5227 108.739H85.772V113.797H86.5227V108.739Z" fill="#016EB9"/>
<path d="M79.4397 108.739H78.689V113.797H79.4397V108.739Z" fill="#016EB9"/>
<path d="M73.1131 108.739H72.3623V113.797H73.1131V108.739Z" fill="#016EB9"/>
<path d="M111.695 108.739H110.944V113.797H111.695V108.739Z" fill="#016EB9"/>
<path d="M113.291 108.739H112.54V113.797H113.291V108.739Z" fill="#016EB9"/>
<path d="M114.832 108.739H114.082V113.797H114.832V108.739Z" fill="#016EB9"/>
<path d="M115.992 108.757V113.78C115.901 113.792 115.807 113.799 115.71 113.799H115.242V108.74H115.71C115.807 108.74 115.9 108.747 115.992 108.757Z" fill="#016EB9"/>
<path d="M117.034 109.225V113.311C116.852 113.497 116.59 113.642 116.285 113.723V108.812C116.592 108.893 116.852 109.04 117.034 109.224V109.225Z" fill="#016EB9"/>
<path d="M112.455 104.789V107.646C112.455 107.874 112.355 108.085 112.182 108.261C112 108.446 111.738 108.591 111.433 108.672C111.34 108.698 111.242 108.717 111.141 108.729C111.111 108.732 111.079 108.736 111.048 108.738L110.997 108.742C110.98 108.742 110.963 108.743 110.946 108.744C110.917 108.744 110.889 108.746 110.861 108.746H44.8567C44.0054 108.746 43.3039 108.28 43.2622 107.701C43.2622 107.683 43.2622 107.663 43.2622 107.645V104.788C43.2622 104.769 43.2622 104.75 43.2622 104.731C43.3058 104.152 44.0073 103.687 44.8567 103.687H110.857C110.953 103.687 111.046 103.694 111.139 103.704C111.24 103.716 111.338 103.735 111.431 103.76C111.738 103.841 111.998 103.988 112.18 104.172C112.353 104.349 112.453 104.559 112.453 104.786L112.455 104.789Z" fill="#00A3FE"/>
<path d="M80.0446 108.747H44.686C43.9277 108.747 43.3001 108.282 43.2622 107.703C43.2622 107.684 43.2622 107.665 43.2622 107.646V104.789C43.2622 104.771 43.2622 104.751 43.2622 104.733C43.3001 104.154 43.9277 103.689 44.686 103.689H75.703C76.1978 105.175 77.3486 107.229 80.0313 108.739C80.0351 108.742 80.0408 108.744 80.0446 108.747Z" fill="#016EB9"/>
<path d="M104.424 103.688H103.673V108.747H104.424V103.688Z" fill="#016EB9"/>
<path d="M101.886 103.688H101.135V108.747H101.886V103.688Z" fill="#016EB9"/>
<path d="M98.8406 103.688H98.0898V108.747H98.8406V103.688Z" fill="#016EB9"/>
<path d="M94.1727 103.688H93.4219V108.747H94.1727V103.688Z" fill="#016EB9"/>
<path d="M89.2376 103.688H88.4868V108.747H89.2376V103.688Z" fill="#016EB9"/>
<path d="M81.6712 103.688H80.9204V108.747H81.6712V103.688Z" fill="#016EB9"/>
<path d="M74.5862 103.688H73.8354V108.747H74.5862V103.688Z" fill="#016EB9"/>
<path d="M68.2615 103.688H67.5107V108.747H68.2615V103.688Z" fill="#016EB9"/>
<path d="M106.841 103.688H106.09V108.747H106.841V103.688Z" fill="#016EB9"/>
<path d="M108.438 103.688H107.687V108.747H108.438V103.688Z" fill="#016EB9"/>
<path d="M109.981 103.688H109.23V108.747H109.981V103.688Z" fill="#016EB9"/>
<path d="M111.139 103.707V108.73C111.048 108.742 110.954 108.748 110.857 108.748H110.389V103.69H110.857C110.954 103.69 111.047 103.696 111.139 103.707Z" fill="#016EB9"/>
<path d="M112.182 104.175V108.261C112 108.446 111.738 108.591 111.433 108.672V103.763C111.74 103.844 112 103.99 112.182 104.175Z" fill="#016EB9"/>
<path d="M67.0254 121.089C81.6126 111.033 81.6126 94.7272 67.0254 84.6703C52.4381 74.6135 28.7875 74.6135 14.2002 84.6704C-0.387084 94.7272 -0.387091 111.033 14.2002 121.089C28.7874 131.146 52.4381 131.146 67.0254 121.089Z" fill="#016EB9"/>
<path d="M63.7651 121.09C78.3524 111.033 78.3524 94.7278 63.7651 84.671C49.1778 74.6141 25.5272 74.6141 10.9399 84.671C-3.64734 94.7278 -3.64734 111.033 10.9399 121.09C25.5272 131.147 49.1778 131.147 63.7651 121.09Z" fill="#00A3FE"/>
<path d="M37.3531 126.649C32.7594 126.649 28.3021 126.028 24.1065 124.804C20.053 123.623 16.4148 121.931 13.2885 119.776C10.164 117.622 7.70884 115.112 5.99494 112.318C4.22038 109.425 3.31982 106.352 3.31982 103.185C3.31982 100.018 4.22038 96.9451 5.99494 94.0525C7.70884 91.258 10.1621 88.7497 13.2885 86.5943C16.4129 84.4403 20.053 82.7476 24.1065 81.566C28.3021 80.3426 32.7594 79.7217 37.3531 79.7217C41.9469 79.7217 46.4042 80.3426 50.5998 81.566C54.6533 82.7476 58.2915 84.4389 61.4178 86.5943C64.5423 88.7484 66.9975 91.258 68.7114 94.0525C70.4859 96.9451 71.3865 100.018 71.3865 103.185C71.3865 106.352 70.4859 109.425 68.7114 112.318C66.9975 115.112 64.5442 117.621 61.4178 119.776C58.2934 121.93 54.6533 123.623 50.5998 124.804C46.4042 126.028 41.9469 126.649 37.3531 126.649ZM37.3531 81.1216C28.8045 81.1216 20.7678 83.4168 14.7237 87.5838C8.67954 91.7508 5.35033 97.2915 5.35033 103.185C5.35033 109.079 8.67954 114.62 14.7237 118.786C20.7678 122.953 28.8045 125.249 37.3531 125.249C45.9018 125.249 53.9385 122.953 59.9826 118.786C66.0268 114.62 69.356 109.079 69.356 103.185C69.356 97.2915 66.0268 91.7508 59.9826 87.5838C53.9385 83.4168 45.9018 81.1216 37.3531 81.1216Z" fill="#016EB9"/>
<path d="M42.0378 109.995C42.125 109.489 42.0985 109.036 41.9582 108.633C41.8179 108.231 41.5392 107.854 41.1221 107.502C40.705 107.151 40.1495 106.812 39.4518 106.486C38.7541 106.16 37.8915 105.827 36.862 105.486C35.095 104.89 33.5006 104.284 32.0805 103.674C30.6586 103.062 29.468 102.394 28.5049 101.668C27.5418 100.941 26.8384 100.127 26.3928 99.2221C25.9473 98.3189 25.826 97.2759 26.0288 96.0956C26.2051 95.0721 26.6298 94.1598 27.301 93.3585C27.9721 92.5586 28.8518 91.8854 29.9382 91.3391C31.0245 90.7927 32.2834 90.3797 33.7148 90.1C35.1462 89.8203 36.7179 89.6948 38.4299 89.7248L39.0954 85.8572L43.6095 86.2271L42.9346 90.1483C44.5271 90.4254 45.9434 90.8411 47.1833 91.394C48.4232 91.9469 49.4432 92.6174 50.2433 93.403C51.0415 94.1898 51.6083 95.0878 51.9401 96.0982C52.2719 97.1086 52.3345 98.217 52.1259 99.4208L43.9716 98.7542C44.22 97.3085 43.9413 96.1897 43.1336 95.3963C42.326 94.6042 41.1411 94.1428 39.5788 94.0147C38.7314 93.9454 37.9882 93.9676 37.3492 94.08C36.7103 94.1925 36.1681 94.3741 35.7245 94.6251C35.2808 94.8761 34.932 95.1871 34.6779 95.557C34.4239 95.927 34.257 96.3348 34.1812 96.7805C34.1054 97.2262 34.1281 97.6379 34.2551 98.0144C34.3803 98.3908 34.6476 98.7516 35.0552 99.0966C35.4628 99.4417 36.024 99.7802 36.7407 100.114C37.4554 100.447 38.3522 100.805 39.4328 101.187C41.1771 101.806 42.7545 102.423 44.165 103.04C45.5756 103.657 46.7624 104.331 47.7236 105.063C48.6848 105.795 49.3882 106.614 49.8338 107.518C50.2793 108.423 50.4006 109.459 50.1997 110.628C50.0177 111.688 49.5854 112.618 48.9048 113.417C48.2241 114.217 47.3406 114.884 46.2562 115.418C45.1717 115.953 43.9072 116.35 42.4606 116.61C41.014 116.87 39.4347 116.985 37.7227 116.955L37.1047 120.551L32.6171 120.184L33.2332 116.605C31.69 116.368 30.2207 116.01 28.8253 115.531C27.4299 115.05 26.226 114.423 25.2136 113.65C24.2012 112.877 23.4466 111.944 22.948 110.853C22.4494 109.761 22.3242 108.492 22.5726 107.046L30.7269 107.713C30.579 108.568 30.6302 109.297 30.8804 109.897C31.1307 110.498 31.5175 110.994 32.0407 111.385C32.564 111.775 33.1859 112.071 33.9063 112.269C34.6248 112.469 35.3699 112.6 36.1416 112.663C37.0251 112.735 37.8156 112.72 38.5095 112.618C39.2034 112.516 39.8007 112.345 40.3012 112.105C40.7998 111.864 41.196 111.564 41.4861 111.203C41.7781 110.842 41.962 110.438 42.0378 109.992V109.995Z" fill="#016EB9"/>
<path d="M312.562 129H7.86233C7.62155 129 7.42627 128.848 7.42627 128.664C7.42627 128.48 7.62344 128.328 7.86233 128.328H312.562C312.803 128.328 312.998 128.48 312.998 128.664C312.998 128.848 312.801 129 312.562 129Z" fill="#202F4E"/>
</g>
<defs>
<clipPath id="clip0_293_1010">
<rect width="313" height="129" fill="white"/>
</clipPath>
</defs>
</svg>
