<svg width="14" height="14" viewBox="0 0 14 14" fill="none" xmlns="http://www.w3.org/2000/svg">
<path fill-rule="evenodd" clip-rule="evenodd" d="M9.5436 0.162071L13.7416 3.66043C13.902 3.79335 13.9949 3.99085 13.9949 4.19918C13.9949 4.40751 13.902 4.605 13.7416 4.73792L9.5436 8.23628C9.41772 8.34059 9.25929 8.39752 9.09581 8.3972C8.99445 8.39775 8.89418 8.37626 8.80194 8.33423C8.55394 8.21946 8.39546 7.9708 8.39613 7.69753V6.33317C5.60047 6.60678 3.20937 8.45927 2.24602 11.0979L1.35744 13.5328C1.25728 13.8098 0.994329 13.9945 0.699747 13.9946C0.660428 14.0018 0.620121 14.0018 0.580802 13.9946C0.241409 13.9361 -0.00493184 13.6393 7.49581e-05 13.2949V11.1959C0.00426931 6.44693 3.66124 2.50045 8.39613 2.13514V0.700818C8.39569 0.429158 8.55254 0.181797 8.79844 0.0663418C9.04435 -0.0491137 9.33486 -0.0117923 9.5436 0.162071ZM9.79548 5.59851V6.20722L12.2023 4.19916L9.79548 2.1911V2.79982C9.79548 3.18624 9.48222 3.49949 9.09581 3.49949C5.69199 3.50021 2.6929 5.73672 1.72127 8.99891C3.30934 6.45343 6.09558 4.90435 9.09581 4.89883C9.48222 4.89883 9.79548 5.21209 9.79548 5.59851Z" fill="#515759"/>
</svg>
