<svg width="289" height="141" viewBox="0 0 289 141" fill="none" xmlns="http://www.w3.org/2000/svg">
<g clip-path="url(#clip0_142_976)">
<path d="M128.239 128.69C125.375 127.8 122.618 126.397 119.62 126.11C111.684 125.345 103.654 125.103 95.664 124.554C92.2914 124.329 89.7352 124.419 88.6645 127.216C87.6073 129.976 84.5425 131.289 80.0724 131.073C65.1232 130.363 50.1606 129.769 35.2114 129.014C33.659 128.933 32.2002 128.079 30.6879 127.207C36.4026 128.519 38.758 126.218 40.2704 123.421C43.6028 117.289 43.6296 111.057 40.1633 104.952C37.5669 100.384 34.636 100.078 28.3726 103.774C29.2425 99.8267 31.9459 97.7765 37.4598 97.7586C51.2447 97.7226 65.0162 97.7496 78.801 97.7496V98.9545C78.5333 99.1163 78.2791 99.3861 77.9712 99.422C64.7083 100.753 64.9225 100.735 66.4482 109.52C67.0772 113.179 66.5552 116.929 66.5552 121.092C86.1886 122.198 105.139 123.277 124.13 124.347C124.786 118.152 124.813 112.469 126.178 106.93C127.061 103.333 129.176 99.6558 132 96.5357C136.898 91.1136 144.393 91.2395 149.398 96.7155C151.914 99.467 153.012 102.794 155.073 105.761C155.782 106.786 157.455 108.225 158.726 108.243C172.458 108.423 186.202 108.351 200.83 108.351C195.892 94.1708 180.889 86.9055 165.043 79.802C172.351 81.2587 179.645 82.7153 186.952 84.172L187.634 83.2818L156.291 70.5944L156.772 69.7941C166.877 71.6734 176.981 73.5527 187.086 75.423L187.661 74.5328C176.54 70.3696 165.418 66.2064 154.296 62.0432L154.698 60.7754C186.296 69.3535 218.951 71.6554 253.173 69.2456C249.787 67.4923 246.735 65.9097 243.684 64.3361L245.076 63.401C259.436 65.4691 268.992 72.5996 269.929 81.996C270.41 86.8246 270.865 91.6621 271.334 96.4907L273.997 96.7695C275.001 94.7553 276.018 92.7501 277.209 90.3583C285.627 96.4637 289.669 103.747 288.973 112.118C288.652 115.985 287.621 119.878 286.189 123.628C285.734 124.824 282.817 126.505 281.184 126.433C275.871 126.209 274.064 127.8 273.515 130.992C273.234 132.593 272.137 134.148 271.24 135.677C269.166 139.193 265.873 141.36 259.61 140.856C256.331 140.586 252.932 140.91 249.586 140.973C236.658 141.216 232.656 139.669 229.23 131.415C227.544 127.368 224.76 126.415 218.992 126.532C205.849 126.802 192.68 126.694 179.537 126.559C175.322 126.514 172.645 127.144 172.377 130.318C172.297 131.343 171.668 132.359 171.159 133.348C167.854 139.723 166.328 140.46 156.304 140.622C152.744 140.676 149.171 140.73 145.611 140.766C135.734 140.883 132.99 139.561 130.273 133.393C133.459 135.011 136.831 138.024 139.789 137.853C142.907 137.664 146.829 134.778 148.287 132.467C154.417 122.684 154.404 112.604 147.98 102.893C146.507 100.672 142.305 98.1272 139.053 97.9294C136.403 97.7676 132.08 100.51 130.648 102.623C124.92 111.012 123.675 119.788 128.306 128.699L128.239 128.69ZM234.249 76.1693C226.915 76.1693 219.567 76.0704 212.246 76.1963C205.742 76.3132 202.945 78.3094 204.35 82.4636C206.813 89.7289 209.69 96.9493 213.063 104.053C213.785 105.572 217.279 107.461 219.594 107.524C231.799 107.865 244.032 107.694 256.264 107.667C260.453 107.667 263.224 106.274 263.277 103.396C263.398 96.0861 263.438 88.7668 263.05 81.4565C262.862 78.0306 259.797 76.0704 254.27 76.1513C247.605 76.2412 240.94 76.1693 234.262 76.1693H234.249ZM285.855 109.987H156.639V124.968C163.866 124.968 170.718 124.968 177.57 124.968C210.573 124.968 243.577 125.004 276.58 124.896C278.788 124.896 282.589 124.024 282.924 123.106C284.409 118.952 284.918 114.645 285.855 109.987ZM44.5664 115.122C46.3865 119.222 47.4438 123.25 49.9465 126.82C52.4224 130.345 57.0263 130.138 60.332 126.856C65.6586 121.587 65.5113 108.54 60.0643 103.531C56.7586 100.492 52.5295 100.285 50.1071 103.63C47.5375 107.173 46.3865 111.174 44.553 115.131L44.5664 115.122ZM272.217 107.47H284.998C284.597 101.373 282.067 98.2171 277.999 98.5139C271.695 98.9635 270.812 100.24 272.217 107.47Z" fill="black"/>
<path d="M138.424 35.8052C140.471 35.1848 142.519 34.0339 144.594 34.0159C168.657 33.881 192.72 33.9619 216.783 33.872C222.03 33.854 225.054 35.1309 226.259 38.7186C227.878 43.5292 229.966 48.2678 232 53.0155C233.633 56.846 231.505 58.1408 225.777 58.1048C199.934 57.979 174.09 57.979 148.247 58.0509C144.152 58.0599 141.877 56.9449 141.154 54.3912C140.324 51.4599 139.762 48.4926 139.08 45.5433C139.99 47.8362 141.141 50.1022 141.743 52.431C142.653 55.9558 145.182 57.6463 150.803 57.3136C157.656 56.9089 164.575 56.8999 171.441 56.5583C172.98 56.4773 175.563 55.8749 175.763 55.2545C177.798 48.6365 179.457 41.9556 181.384 34.6633C168.188 34.6633 156.465 34.6093 144.727 34.7172C142.626 34.7352 140.552 35.4186 138.464 35.7963L138.424 35.8052Z" fill="black"/>
<path d="M0 90.1875C11.3223 89.1714 28.9616 87.5259 46.641 86.0693C50.6426 85.7366 52.4895 84.9543 52.4627 81.969C52.3155 57.2506 52.369 32.5232 52.3423 7.79586C52.3423 7.07652 52.0478 6.35717 51.7534 4.99942C39.7619 8.38032 28.1853 11.6353 16.5954 14.8994L15.953 14.0272C28.6939 9.44135 41.4081 4.81059 54.2293 0.296719C55.4874 -0.143878 57.2941 0.0359576 58.8466 0.0539411C84.4891 0.341678 110.132 0.647398 135.774 0.980094C138.143 1.00707 140.512 1.32178 142.814 1.89725C114.615 2.86837 86.4029 3.83948 57.2941 4.83756C57.2941 6.95962 57.2941 8.71302 57.2941 10.4574C57.2941 35.4815 57.2004 60.5056 57.3878 85.5297C57.4146 88.9736 56.1967 90.3134 50.7363 90.2594C31.8122 90.0706 12.8748 90.1875 0.0133833 90.1875H0Z" fill="black"/>
<path d="M67.2514 59.3727C67.2514 48.8883 67.3852 38.4039 67.1711 27.9284C67.1042 24.9791 68.3221 23.5045 72.9795 23.3876C78.0919 23.2617 83.191 22.8121 88.3034 22.4884C92.305 22.2367 94.8746 23.0999 94.7676 26.1301C93.9512 49.0411 93.1348 71.9432 92.2916 94.8542C92.2783 95.2678 91.8901 95.6725 91.395 96.6166C81.1701 96.6166 70.7578 96.6166 60.3456 96.6166C52.7706 96.6166 45.1823 96.7695 37.6073 96.5627C30.8755 96.3828 26.8605 98.5319 25.5087 102.668C23.983 107.308 23.2068 112.046 20.9183 116.875C20.7978 115.625 20.4498 114.357 20.6104 113.126C21.2796 108.054 22.3904 103.001 22.7652 97.9294C22.9927 94.8542 24.6254 93.8471 29.2025 93.8921C45.6908 94.045 62.1925 93.8382 78.6942 94.018C83.8467 94.0719 85.6401 93.0739 85.707 89.4771C86.0015 70.7563 86.6974 52.0354 87.206 33.3235C87.3532 28.0274 86.8714 27.7306 79.457 28.7467C68.7637 30.2124 69.8745 28.5399 69.3392 36.4347C68.8172 44.0597 68.2685 51.6937 67.7332 59.3187L67.3049 59.3727H67.2514Z" fill="black"/>
<path d="M213.09 23.8462C210.734 23.8462 208.392 23.8462 206.037 23.8462C180.836 23.8462 155.635 24.026 130.447 23.7293C123.769 23.6484 117.144 22.0748 110.48 21.2476C104.925 20.5552 99.358 19.5032 93.7771 19.4402C86.2557 19.3593 78.7208 20.0696 71.0789 20.4473C68.5361 16.383 70.6908 15.0432 76.3654 15.0702C103.467 15.1961 130.568 15.259 157.669 15.331C168.148 15.3579 178.628 15.313 189.107 15.3669C191.355 15.3759 193.603 15.7086 195.852 15.8885L195.705 17.2642H111.738L111.51 18.7119C117.385 19.4402 123.261 20.735 129.163 20.798C153.681 21.0318 178.213 20.8519 202.731 20.9598C206.291 20.9778 209.851 21.7241 213.411 22.1377L213.09 23.8642V23.8462Z" fill="black"/>
<path d="M114.816 24.7813C113.223 27.9105 110.948 30.3382 110.894 32.793C110.546 46.8651 110.72 60.9373 110.72 75.0094C110.72 79.7031 106.794 81.6153 98.9429 80.7461C98.8091 79.2445 98.528 77.653 98.528 76.0524C98.5146 60.3348 98.7154 44.6172 98.4343 28.8996C98.3674 25.0511 100.254 23.7113 105.742 24.2238C109.261 24.5565 112.821 24.6644 114.816 24.7813Z" fill="black"/>
<path d="M127.035 96.5537C125.643 95.9332 124.305 94.8722 122.832 94.7643C119.139 94.5035 115.365 94.6744 109.784 94.6744C114.307 93.982 117.064 93.5504 119.808 93.1278L119.901 92.3905C114.709 91.77 109.529 91.1496 104.337 90.5382V89.8458L122.163 88.551L122.31 87.8316C116.449 87.1303 110.587 86.4289 104.256 85.6736C111.903 83.9892 115.73 80.4104 115.739 74.9374C115.739 72.8873 115.739 70.8462 115.739 69.1557C122.525 68.4094 128.266 67.78 134.436 67.0966C135.132 72.7345 135.881 78.8129 136.698 85.4668C133.941 88.542 130.407 92.4804 126.861 96.4188L127.021 96.5447L127.035 96.5537Z" fill="black"/>
<path d="M122.324 38.0442C128.052 37.4507 130.528 39.2311 131.144 42.9267C131.96 47.8272 133.392 52.6828 134.329 57.5833C134.971 60.9822 133.098 62.5648 127.41 61.9893C115.86 60.8204 115.846 60.9642 115.94 53.2133C115.98 49.6256 116.141 46.0289 115.9 42.4412C115.686 39.2401 117.185 37.4687 122.311 38.0442H122.324Z" fill="black"/>
<path d="M226.259 31.0216C197.538 31.0216 168.871 31.0936 140.204 30.9317C136.604 30.9137 133.03 29.7268 129.43 29.0794L129.725 27.6497C131.103 27.5148 132.482 27.2631 133.86 27.2631C160.841 27.2451 187.835 27.308 214.816 27.2181C219.955 27.2001 223.836 28.1892 226.245 31.0126L226.259 31.0216Z" fill="black"/>
<path d="M162.661 96.0951L167.934 95.6095C167.412 94.5755 166.93 93.6044 166.181 92.1207C168.965 93.0379 170.878 93.6673 172.806 94.3057L173.85 93.4605C170.397 91.4823 166.93 89.4951 163.692 87.6428C174.224 88.2722 189.508 97.6687 192.131 105.563C184.77 105.563 177.503 105.662 170.249 105.474C168.965 105.438 167.171 104.421 166.596 103.567C165.057 101.283 164.066 98.8466 162.675 96.1041L162.661 96.0951ZM165.953 97.336C168.831 105.518 174.465 107.011 189.187 104.107C184.235 97.4349 174.452 99.4041 165.953 97.336Z" fill="black"/>
<path d="M124.09 103.549L122.404 107.542C110.627 106.849 98.7689 106.148 86.9246 105.456L86.8711 104.709C99.2775 104.323 111.684 103.936 124.09 103.558V103.549Z" fill="black"/>
<path d="M126.874 96.4278C127.249 98.9814 125.656 99.7457 121.815 99.5119C111.805 98.9185 101.74 98.6038 91.7163 97.9024C101.018 97.9024 110.333 97.9923 119.634 97.8395C122.123 97.7945 124.586 97.0122 127.048 96.5626L126.874 96.4278Z" fill="black"/>
<path d="M119.701 117.558C119.246 121.461 117.265 121.901 105.795 120.013C109.984 119.276 114.856 118.413 119.701 117.558Z" fill="black"/>
<path d="M135.761 132.791C147.766 127.764 148.368 112.496 137.862 105.42C144.835 106.436 148.528 113.485 146.963 122.828C145.785 129.868 142.881 132.764 135.761 132.791Z" fill="black"/>
<path d="M223.074 113.665H261.537V122.036C251.741 122.036 242.051 122.081 232.362 121.982C231.304 121.973 229.886 121.326 229.27 120.688C227.129 118.494 225.269 116.174 223.087 113.665H223.074Z" fill="black"/>
<path d="M183.566 113.746H200.402V121.524C195.343 122.522 190.846 122.989 188.638 118.341C187.902 116.776 185.614 115.544 183.566 113.746Z" fill="black"/>
<path d="M274.854 113.53C277.142 113.674 278.762 113.773 280.943 113.908C280.14 116.623 279.444 118.97 278.748 121.326L277.544 121.344C276.714 118.934 275.871 116.524 274.84 113.53H274.854Z" fill="black"/>
</g>
<defs>
<clipPath id="clip0_142_976">
<rect width="289" height="141" fill="white"/>
</clipPath>
</defs>
</svg>
